<svg width="226" height="226" viewBox="0 0 226 226" fill="none" xmlns="http://www.w3.org/2000/svg">
<g clip-path="url(#clip0_118_531)">
<path d="M113.002 226.014C98.1559 226.055 83.4494 223.151 69.7335 217.47C56.0176 211.789 43.5647 203.444 33.0956 192.918C22.569 182.449 14.2233 169.996 8.54187 156.281C2.8604 142.565 -0.0440925 127.858 -0.0034742 113.012C-0.0446632 98.1658 2.85957 83.459 8.54107 69.743C14.2226 56.027 22.5685 43.5743 33.0956 33.1058C43.564 22.5787 56.0168 14.2328 69.7328 8.5513C83.4488 2.8698 98.1556 -0.0344093 113.002 0.00677971C127.848 -0.0338386 142.554 2.87063 156.27 8.5521C169.986 14.2336 182.439 22.5792 192.908 33.1058C203.434 43.5749 211.779 56.0278 217.46 69.7437C223.141 83.4597 226.044 98.1661 226.003 113.012C226.043 127.858 223.139 142.564 217.458 156.279C211.777 169.995 203.433 182.448 192.908 192.918C182.438 203.443 169.985 211.787 156.269 217.468C142.553 223.149 127.847 226.054 113.002 226.014ZM113.002 13.7906C58.2901 13.7906 13.7769 58.3038 13.7769 113.015C13.7769 167.727 58.2901 212.237 113.002 212.237C167.713 212.237 212.223 167.727 212.223 113.015C212.223 58.3038 167.713 13.7768 113.002 13.7768V13.7906Z" fill="white"/>
<path d="M113.002 205.521C100.847 205.553 88.8068 203.175 77.5775 198.524C66.3482 193.872 56.153 187.039 47.582 178.421C38.9636 169.851 32.1309 159.655 27.4793 148.426C22.8277 137.197 20.4496 125.156 20.4828 113.002C20.4493 100.847 22.8271 88.8065 27.4787 77.5771C32.1304 66.3477 38.9633 56.1526 47.582 47.582C56.1526 38.9633 66.3477 32.1304 77.5771 27.4787C88.8064 22.8271 100.847 20.4493 113.002 20.4828C125.156 20.4496 137.197 22.8277 148.426 27.4793C159.655 32.1309 169.851 38.9636 178.421 47.582C187.039 56.1532 193.871 66.3485 198.522 77.5778C203.173 88.8071 205.551 100.847 205.517 113.002C205.55 125.156 203.172 137.196 198.521 148.425C193.87 159.655 187.039 169.85 178.421 178.421C169.85 187.039 159.655 193.871 148.426 198.523C137.196 203.175 125.156 205.553 113.002 205.521ZM113.002 28.0601C66.1601 28.0601 28.0601 66.1636 28.0601 113.002C28.0601 159.84 66.1636 197.943 113.002 197.943C159.84 197.943 197.94 159.836 197.94 113.002C197.94 66.167 159.836 28.0601 113.002 28.0601Z" fill="white"/>
<path d="M66.0677 101.45L59.5478 118.158L52.8384 103.781L47.1348 104.787V134.022L53.4549 132.909V120.035L57.9221 129.489L60.9806 128.948L65.4581 117.455L65.5063 130.784L71.8264 129.668L71.7713 100.444L66.0677 101.45Z" fill="white"/>
<path d="M95.1713 96.3179L88.4688 97.4992L84.229 108.373L80.0304 98.9871L72.708 100.279L80.4713 117.424V128.146L87.408 126.92V116.319L95.1713 96.3179Z" fill="white"/>
<path d="M110.618 107.294C109.955 106.778 109.203 106.387 108.4 106.141C107.615 105.896 106.807 105.731 105.989 105.648C105.174 105.568 104.429 105.49 103.754 105.414C103.187 105.369 102.633 105.22 102.121 104.973C101.924 104.872 101.761 104.716 101.652 104.524C101.542 104.332 101.491 104.112 101.505 103.892C101.505 103.554 101.592 103.222 101.756 102.927C101.957 102.585 102.246 102.303 102.593 102.111C103.086 101.84 103.624 101.661 104.181 101.58C105.101 101.422 106.043 101.44 106.957 101.636C107.99 101.859 108.986 102.231 109.912 102.741L111.999 95.2327C110.89 94.5498 109.647 94.114 108.355 93.9549C106.986 93.7754 105.598 93.8079 104.239 94.0513C102.306 94.347 100.48 95.1292 98.9317 96.3245C97.5452 97.4227 96.4461 98.841 95.7285 100.458C95.0118 102.076 94.6456 103.827 94.6539 105.596C94.6088 106.888 94.8195 108.175 95.2739 109.385C95.613 110.26 96.1745 111.032 96.903 111.624C97.5709 112.142 98.3288 112.532 99.1383 112.774C99.925 113.017 100.732 113.189 101.549 113.287C102.352 113.384 103.092 113.473 103.771 113.563C104.339 113.621 104.892 113.786 105.4 114.049C105.601 114.161 105.765 114.328 105.874 114.531C105.983 114.733 106.033 114.963 106.016 115.192C106.021 115.513 105.93 115.829 105.755 116.098C105.538 116.396 105.249 116.633 104.914 116.787C104.415 117.015 103.887 117.172 103.344 117.252C102.177 117.452 100.982 117.414 99.8306 117.141C98.6652 116.879 97.5552 116.412 96.5517 115.764L94.3164 123.341C95.5177 124.121 96.8737 124.631 98.291 124.836C99.947 125.11 101.638 125.095 103.289 124.791C105.236 124.5 107.074 123.709 108.624 122.494C110.003 121.383 111.096 119.959 111.813 118.34C112.524 116.736 112.889 115 112.884 113.246C112.929 111.973 112.719 110.704 112.268 109.512C111.92 108.642 111.351 107.878 110.618 107.294Z" fill="white"/>
<path d="M135.21 118.492V89.2573L128.449 90.449V103.744L120.627 91.8267L114.927 92.8324V122.071L121.688 120.875V107.584L129.506 119.498L135.21 118.492Z" fill="white"/>
<path d="M148.412 116.832C149.924 116.588 151.366 116.021 152.639 115.169C153.912 114.317 154.987 113.201 155.789 111.896C157.553 109.162 158.435 105.609 158.435 101.24V85.1587L151.615 86.3607V102.149C151.615 104.379 151.336 106.008 150.778 107.036C150.563 107.498 150.242 107.903 149.841 108.217C149.44 108.531 148.97 108.746 148.47 108.845C148.032 108.94 147.575 108.896 147.163 108.717C146.751 108.538 146.406 108.235 146.177 107.849C145.609 107.016 145.325 105.485 145.322 103.258V87.4698L138.386 88.6959V104.777C138.386 109.14 139.267 112.382 141.031 114.504C142.794 116.625 145.255 117.401 148.412 116.832Z" fill="white"/>
<path d="M170.913 105.159C170.414 105.388 169.885 105.545 169.342 105.624C168.176 105.826 166.981 105.789 165.829 105.514C164.664 105.251 163.554 104.785 162.55 104.136L160.318 111.714C161.519 112.485 162.873 112.987 164.286 113.184C165.942 113.46 167.633 113.445 169.284 113.14C171.226 112.848 173.059 112.057 174.605 110.846C175.983 109.733 177.076 108.308 177.794 106.689C178.506 105.085 178.871 103.349 178.866 101.595C178.908 100.331 178.699 99.0707 178.249 97.8886C177.906 97.0203 177.344 96.256 176.616 95.6705C175.953 95.1545 175.202 94.7636 174.398 94.5167C173.613 94.2718 172.806 94.1068 171.987 94.0242C171.175 93.945 170.427 93.8692 169.752 93.7934C169.185 93.748 168.631 93.5974 168.12 93.3491C167.923 93.2483 167.76 93.0924 167.65 92.9003C167.541 92.7082 167.489 92.4883 167.503 92.2676C167.504 91.93 167.59 91.5981 167.754 91.3032C167.955 90.9612 168.244 90.6793 168.591 90.487C169.085 90.2165 169.622 90.0368 170.179 89.9565C171.1 89.7979 172.042 89.8166 172.955 90.0116C173.988 90.2365 174.983 90.6089 175.91 91.1173L177.998 83.6088C176.889 82.9259 175.646 82.4901 174.354 82.331C172.985 82.1511 171.596 82.1848 170.238 82.4309C168.304 82.7239 166.478 83.5051 164.93 84.7006C163.545 85.7998 162.446 87.2178 161.727 88.8337C161.005 90.4469 160.631 92.1946 160.632 93.9622C160.587 95.2536 160.797 96.5411 161.252 97.7508C161.591 98.626 162.152 99.3977 162.881 99.9896C163.549 100.507 164.307 100.898 165.116 101.143C165.903 101.384 166.71 101.554 167.527 101.653C168.331 101.75 169.071 101.843 169.749 101.932C170.317 101.99 170.87 102.153 171.378 102.414C171.579 102.527 171.744 102.695 171.854 102.898C171.964 103.101 172.014 103.331 171.998 103.561C172.001 103.882 171.909 104.196 171.733 104.464C171.525 104.764 171.243 105.004 170.913 105.159Z" fill="white"/>
<path d="M134.514 137.673C134.192 137.738 133.887 137.87 133.618 138.06C133.35 138.249 133.123 138.493 132.954 138.775C132.514 139.463 132.293 140.269 132.32 141.086C132.274 141.838 132.499 142.582 132.954 143.184C133.132 143.418 133.374 143.598 133.65 143.701C133.926 143.805 134.225 143.828 134.514 143.769C134.841 143.702 135.149 143.565 135.419 143.369C135.688 143.173 135.913 142.922 136.078 142.632C136.512 141.937 136.732 141.13 136.712 140.311C136.763 139.561 136.537 138.819 136.078 138.224C135.892 137.998 135.649 137.827 135.373 137.73C135.097 137.633 134.8 137.613 134.514 137.673Z" fill="white"/>
<path d="M141.906 130.953C142.123 130.574 142.415 130.242 142.764 129.978C143.092 129.731 143.475 129.566 143.88 129.496C144.363 129.397 144.866 129.491 145.281 129.758C145.748 130.076 146.138 130.495 146.421 130.984L148.901 127.405C148.4 126.51 147.637 125.788 146.714 125.339C145.761 124.919 144.7 124.808 143.68 125.022C142.748 125.187 141.865 125.557 141.093 126.103C140.276 126.685 139.575 127.414 139.027 128.253C138.425 129.17 137.968 130.175 137.673 131.232C137.343 132.397 137.181 133.603 137.191 134.814C137.172 135.969 137.335 137.119 137.673 138.224C137.949 139.141 138.409 139.992 139.027 140.724C139.578 141.372 140.291 141.863 141.093 142.147C141.926 142.426 142.818 142.484 143.68 142.315C144.797 142.125 145.844 141.643 146.714 140.917C147.633 140.138 148.378 139.175 148.901 138.089L146.421 135.382C146.131 135.983 145.746 136.533 145.281 137.011C144.905 137.404 144.414 137.669 143.88 137.769C143.507 137.844 143.121 137.814 142.764 137.683C142.418 137.539 142.121 137.3 141.906 136.994C141.643 136.627 141.453 136.213 141.345 135.775C141.204 135.227 141.136 134.663 141.145 134.097C141.139 133.509 141.206 132.923 141.345 132.351C141.463 131.86 141.652 131.389 141.906 130.953Z" fill="white"/>
<path d="M160.591 124.464C160.038 123.814 159.326 123.318 158.524 123.024C157.678 122.739 156.773 122.678 155.896 122.849C154.953 123.017 154.059 123.394 153.279 123.951C152.454 124.54 151.746 125.277 151.191 126.124C150.585 127.043 150.12 128.049 149.814 129.107C149.479 130.259 149.313 131.454 149.321 132.654C149.306 133.794 149.472 134.929 149.814 136.016C150.099 136.937 150.568 137.791 151.191 138.527C151.748 139.183 152.468 139.679 153.279 139.967C154.127 140.253 155.035 140.312 155.914 140.139C156.856 139.974 157.748 139.599 158.524 139.04C159.342 138.45 160.042 137.713 160.591 136.867C161.198 135.944 161.662 134.935 161.968 133.874C162.3 132.725 162.465 131.535 162.458 130.34C162.476 129.196 162.31 128.056 161.968 126.965C161.68 126.048 161.212 125.198 160.591 124.464ZM158.293 132.809C158.18 133.3 157.993 133.77 157.739 134.204C157.523 134.573 157.24 134.899 156.905 135.165C156.606 135.405 156.25 135.565 155.872 135.63C155.525 135.7 155.165 135.664 154.839 135.527C154.509 135.381 154.222 135.15 154.009 134.859C153.748 134.497 153.559 134.089 153.451 133.657C153.31 133.101 153.243 132.529 153.251 131.955C153.247 131.359 153.314 130.765 153.451 130.185C153.568 129.694 153.756 129.223 154.009 128.787C154.224 128.418 154.505 128.092 154.839 127.826C155.139 127.588 155.495 127.429 155.872 127.364C156.219 127.295 156.578 127.329 156.905 127.464C157.24 127.616 157.527 127.853 157.739 128.153C158 128.513 158.188 128.92 158.293 129.351C158.435 129.907 158.502 130.479 158.493 131.053C158.498 131.644 158.431 132.234 158.293 132.809Z" fill="white"/>
<path d="M174.591 119.928L170.903 129.379L167.107 121.247L163.88 121.816V138.355L167.455 137.724V130.443L169.983 135.789L171.716 135.486L174.247 128.983L174.275 136.522L177.85 135.892L177.815 119.36L174.591 119.928Z" fill="white"/>
</g>
<defs>
<clipPath id="clip0_118_531">
<rect width="226" height="226" fill="white"/>
</clipPath>
</defs>
</svg>
