<svg width="590" height="111" viewBox="0 0 590 111" fill="none" xmlns="http://www.w3.org/2000/svg">
<g clip-path="url(#clip0_118_497)">
<path d="M17.7876 87.4425L3.9114 28.3678H-0.0195312V26.3965H19.2551V28.3678H15.9793L22.7733 57.1035L26.8746 33.9139L25.5643 28.3678H21.7447V26.3965H41.0194V28.3678H37.5733L44.2821 56.2427L49.3071 28.3678H45.9527V26.3965H54.9873V28.3678H50.9843L40.4625 87.4425H39.4077L27.8639 38.1129L18.921 87.4425H17.7876Z" fill="white"/>
<path d="M74.6812 87.4425L60.805 28.3678H56.874V26.3965H76.1487V28.3678H72.8729L79.6735 57.1035L83.7682 33.9139L82.4579 28.3678H78.7169V26.3965H97.9916V28.3678H94.552L101.254 56.2427L106.233 28.3941H102.886V26.4228H111.914V28.3941H107.911L97.3888 87.4688H96.2751L84.7247 38.1391L75.7884 87.4688L74.6812 87.4425Z" fill="white"/>
<path d="M131.575 87.4425L117.705 28.3678H113.774V26.3965H133.095V28.3678H129.819L136.62 57.1035L140.714 33.9139L139.404 28.3678H135.591V26.3965H154.866V28.3678H151.439L158.142 56.2427L163.173 28.3678H159.819V26.3965H168.853V28.3678H164.85L154.322 87.4425H153.208L141.612 38.1129L132.676 87.4425H131.575Z" fill="white"/>
<path d="M170.438 71.1592C174.074 71.1592 176.865 74.7405 176.865 79.5506C176.865 84.3606 174.074 88.0931 170.438 88.0931C166.802 88.0931 164.109 84.3935 164.109 79.5506C164.109 74.7076 166.776 71.1592 170.438 71.1592Z" fill="white"/>
<path d="M181.301 85.471H185.494V3.2067H181.301V1.23535H202.816C211.379 1.23535 217.524 10.6058 217.524 20.9488V23.5379C217.524 33.7757 211.844 42.2854 205.79 43.0214C213.43 43.0214 218.455 53.3841 218.455 62.3865V65.3436C218.455 79.4058 212.126 87.4226 203.386 87.4226H181.314L181.301 85.471ZM201.139 42.0554C204.677 42.0554 205.424 35.642 205.424 29.4782V18.1298C205.424 10.2444 204.958 3.2067 200.484 3.2067H197.038V42.0554H201.139ZM206.38 56.6105C206.38 49.829 205.352 44.0268 201.63 44.0268H197.044V85.471H202.167C205.895 85.471 206.36 78.4399 206.36 70.6662L206.38 56.6105Z" fill="white"/>
<path d="M259.245 87.4426H244.347V79.9187C242.578 85.4713 239.224 87.8041 235.778 87.8041C232.05 87.8041 224.882 85.0902 224.882 74.734V28.3942H221.253V26.4229H236.61V79.0841C236.61 82.902 237.357 84.387 238.287 84.387C241.36 84.387 244.341 78.0984 244.341 73.2883V28.3942H240.704V26.4229H255.609V85.4976H259.239L259.245 87.4426Z" fill="white"/>
<path d="M267.435 111C264.736 111 262.41 108.411 262.41 103.476C262.41 99.6518 263.805 96.3203 270.324 95.2098C271.91 94.8418 274.144 94.3489 274.792 90.8925L275.539 87.0747L261.945 28.3942H258.014V26.4229H277.288V28.3942H274.013L281.462 57.373L287.358 28.3942H284.194V26.4229H293.13V28.3942H289.199L274.209 102.142C273.023 108.411 270.023 111 267.435 111Z" fill="white"/>
<path d="M313.341 0C317.16 0 320.515 1.36023 322.841 4.1924C324.236 3.94927 324.708 2.83874 324.708 1.23538H326.195V21.3366H324.708V15.048C324.708 6.17033 320.423 3.21988 316.512 3.21988C310.74 3.21988 307.477 9.88304 311.854 21.6191C316.138 33.0858 319.493 42.0883 325.913 59.2325C331.967 75.3909 323.869 88.5858 313.996 88.5858C309.855 88.4405 305.912 86.7729 302.917 83.9005C300.585 83.9005 300.585 85.6222 300.585 87.4753H299.098V64.9034H300.585V73.735C300.585 81.1341 306.082 85.9442 310.268 85.9442C317.252 85.9442 319.119 75.3383 312.319 58.4373C309.043 50.1774 306.455 43.6391 301.515 30.937C293.791 11.0987 304.686 0 313.341 0Z" fill="white"/>
<path d="M333.454 85.4708H337.09V28.3938H333.454V26.4224H348.451V33.8215C350.22 28.3938 353.476 26.0479 356.922 26.0479C360.741 26.0479 367.817 28.7617 367.817 39.1244V85.4971H371.453V87.4685H353.292V85.4971H356.083V34.8072C356.083 30.9828 355.428 29.5043 354.118 29.5043C351.792 29.5043 348.437 34.8072 348.437 40.6029V85.4971H351.261V87.4685H333.474L333.454 85.4708Z" fill="white"/>
<path d="M409.721 87.4426H394.823V79.9187C393.054 85.4713 389.699 87.8041 386.253 87.8041C382.532 87.8041 375.365 85.0902 375.365 74.734V28.3942H371.729V26.4229H387.092V79.0841C387.092 82.902 387.839 84.387 388.769 84.387C391.842 84.387 394.823 78.0984 394.823 73.2883V28.3942H391.226V26.4229H406.124V85.4976H409.754L409.721 87.4426Z" fill="white"/>
<path d="M415.467 77.0799C415.467 82.1397 420.217 85.4712 423.944 85.4712C428.229 85.4712 430.647 81.3971 425.523 69.9304C422.549 63.149 419.476 56.361 416.397 49.5598C409.511 34.6367 420.033 25.6343 427.391 25.6343C430.091 25.6905 432.675 26.7433 434.65 28.5913C435.96 28.5913 437.165 28.473 437.165 26.3768H438.653V43.0216H437.165V38.954C437.165 31.798 433.536 28.841 430.181 28.841C426.644 28.841 423.014 32.5406 426.552 40.8005C431.485 52.0241 435.862 62.0188 437.912 66.7041C443.154 78.5321 434.84 88.3889 426.178 88.3889C422.88 88.3596 419.704 87.1342 417.236 84.939C416.214 84.939 415.467 85.307 415.467 87.4032H413.979V68.9054H415.467V77.0799Z" fill="white"/>
<path d="M451.998 71.1592C455.628 71.1592 458.426 74.7405 458.426 79.5506C458.426 84.3606 455.628 88.0931 451.998 88.0931C448.369 88.0931 445.663 84.3935 445.663 79.5506C445.663 74.7076 448.369 71.1592 451.998 71.1592Z" fill="white"/>
<path d="M481.638 25.6538C489.925 25.6538 495.049 32.1921 495.049 40.2089C495.049 46.3726 491.976 49.0865 488.897 49.0865C484.71 49.0865 480.426 44.6445 483.59 36.1348C485.922 29.8462 483.59 27.6252 481.356 27.6252C478.657 27.6252 477.17 30.8319 477.17 34.4131V78.1902C477.17 84.7614 479.135 86.207 481.913 86.207C488.622 86.207 494.112 77.8222 494.112 69.5623V65.1202H495.606V69.5623C495.606 77.5725 491.229 88.1784 481.448 88.1784C473.258 88.1784 465.527 80.6609 465.527 68.6949V42.6731C465.501 36.2793 471.09 25.6538 481.638 25.6538Z" fill="white"/>
<path d="M500.696 45.2622C500.696 35.8917 506.376 25.6538 516.066 25.6538C525.559 25.6538 531.789 35.7668 531.789 45.2622V68.6949C531.789 78.315 526.109 88.1784 516.609 88.1784C507.11 88.1784 500.683 78.3216 500.683 68.6949L500.696 45.2622ZM512.43 79.4322C512.43 82.882 514.107 86.2136 516.433 86.2136C518.758 86.2136 520.069 82.882 520.069 79.4322V34.538C520.069 31.213 518.575 27.6317 516.341 27.6317C513.923 27.6317 512.41 31.213 512.41 34.538L512.43 79.4322Z" fill="white"/>
<path d="M534.875 85.4708H538.505V28.3938H534.875V26.4224H549.682V33.5718C550.992 29.1363 553.776 26.0479 557.498 26.0479C561.219 26.0479 566.067 28.8866 567.561 35.1752C568.871 29.2611 572.304 26.0479 576.032 26.0479C580.127 26.0479 586.37 29.9905 586.37 39.1244V85.4971H590V87.4685H572.049V85.4971H574.839V36.0163C574.839 31.4493 574.283 29.6029 573.162 29.6029C571.393 29.6029 568.046 34.2881 568.046 40.5767V85.4708H570.836V87.4422H553.704V85.4708H556.495V33.5587C556.495 31.5873 555.938 29.616 554.818 29.616C553.141 29.616 549.701 34.3013 549.701 40.5899V85.484H552.492V87.4553H534.895L534.875 85.4708Z" fill="white"/>
</g>
<defs>
<clipPath id="clip0_118_497">
<rect width="590" height="111" fill="white"/>
</clipPath>
</defs>
</svg>
