<svg width="404" height="150" viewBox="0 0 404 150" fill="none" xmlns="http://www.w3.org/2000/svg">
<g clip-path="url(#clip0_119_565)">
<path d="M6.84389 20.7455H10.5429C12.3601 20.7882 14.1653 20.4413 15.8365 19.7282C17.3274 19.057 18.5548 17.914 19.3281 16.4763C20.1599 14.9866 20.5759 13.0267 20.5759 10.5965C20.6274 8.63636 20.29 6.68538 19.5831 4.85571C18.9788 3.34124 17.89 2.06817 16.4858 1.23423C15.0806 0.40233 13.2537 -0.0125053 11.0053 -0.0102447H0V37.3609H6.84389V20.7455ZM6.84389 4.78789H9.43797C10.8557 4.78789 11.8961 4.99135 12.559 5.38809C12.8923 5.59377 13.1794 5.86588 13.4023 6.18738C13.6252 6.50889 13.7791 6.87285 13.8544 7.25646C14.0788 8.34146 14.1803 9.44821 14.157 10.5558C14.1906 11.6222 14.0576 12.6872 13.7626 13.7128C13.65 14.0771 13.4649 14.415 13.2184 14.7063C12.9719 14.9976 12.669 15.2363 12.3278 15.4082C11.4189 15.8066 10.4296 15.9889 9.43797 15.9406H6.85069L6.84389 4.78789Z" fill="white"/>
<path d="M63.8798 16.9952C64.5723 16.0892 65.0543 15.041 65.2908 13.9265C65.5848 12.5904 65.7251 11.2252 65.7089 9.85738C65.7089 7.37072 65.2556 5.40285 64.349 3.95381C63.4235 2.50363 62.0169 1.42355 60.3746 0.901995C58.6316 0.302935 56.4965 0.00341797 53.9693 0.00341797H44.9971V37.361H51.841V20.2471H54.996L59.511 37.361H66.3549L61.1157 18.9552C62.198 18.5635 63.1534 17.8861 63.8798 16.9952ZM58.8174 13.5365C58.5095 14.3464 57.9008 15.007 57.1175 15.3812C56.1175 15.8062 55.035 16.0032 53.9489 15.9576H51.8206V4.65912H54.3195C56.2619 4.65912 57.5799 5.12821 58.2735 6.06636C58.967 7.00451 59.3138 8.4106 59.3138 10.2846C59.3544 11.3901 59.186 12.4932 58.8174 13.5365Z" fill="white"/>
<path d="M107.37 32.651H98.3981V20.2912H105.381V15.5439H98.3981V4.79474H107.278V0H91.5576V37.3576H107.37V32.651Z" fill="white"/>
<path d="M152.364 11.39L152.919 37.3576H158.005L157.311 0H150.467L144.919 25.8726L139.601 0H132.526L131.877 37.3576H137.011L137.521 11.2985L142.93 37.3576H147.044L152.364 11.39Z" fill="white"/>
<path d="M191.112 0H184.36V37.3576H191.112V0Z" fill="white"/>
<path d="M234.276 36.3437C235.811 35.3167 236.934 33.7819 237.445 32.0101C238.072 29.8215 238.368 27.5516 238.322 25.2758V0H231.709V26.0557C231.714 27.1606 231.629 28.264 231.454 29.3551C231.338 30.2665 230.971 31.128 230.394 31.844C229.852 32.4747 228.98 32.79 227.779 32.79C226.646 32.79 225.79 32.4747 225.212 31.844C224.608 31.1418 224.23 30.2745 224.128 29.3551C223.968 28.2626 223.891 27.1597 223.896 26.0557V0H217.236V25.2724C217.19 27.5485 217.487 29.8186 218.117 32.0067C218.629 33.7835 219.76 35.3199 221.306 36.3403C222.845 37.3576 224.998 37.8651 227.765 37.8628C230.533 37.8606 232.703 37.3542 234.276 36.3437Z" fill="white"/>
<path d="M282.809 0L277.257 25.8726L271.94 0H264.865L264.219 37.3576H269.353L269.859 11.2985L275.268 37.3576H279.385L284.703 11.39L285.257 37.3576H290.343L289.65 0H282.809Z" fill="white"/>
<path d="M43.2158 89.9641L34.196 82.0396C31.4015 79.6324 28.8528 76.9552 26.5872 74.0472C24.6515 71.4927 23.686 68.2024 23.6905 64.1763C23.7171 62.1945 24.2507 60.2523 25.2408 58.5338C26.2721 56.6507 27.9097 55.7103 30.1536 55.7126C32.2162 55.7126 33.7427 56.3614 34.7332 57.659C35.7237 58.9566 36.3742 60.7922 36.6847 63.1658C37.0305 65.9523 37.2337 68.7545 37.2933 71.5617L58.0323 69.0083C57.9236 65.6037 57.5415 62.2133 56.89 58.8695C56.2124 55.3232 54.9376 51.9169 53.1195 48.7951C51.2768 45.6167 48.583 43.0431 45.0381 41.0741C41.4932 39.1051 36.8026 38.1194 30.9662 38.1172C21.5373 38.1172 14.0859 40.5575 8.61219 45.4382C3.13844 50.3188 0.399324 57.3696 0.394791 66.5906C0.394791 73.1283 1.80798 78.6136 4.63439 83.0467C7.49312 87.5054 11.0121 91.5068 15.0719 94.9148L24.4997 103.107C28.1783 106.245 31.0954 109.357 33.2509 112.442C35.4064 115.528 36.4841 119.311 36.4841 123.792C36.4892 125.644 36.0986 127.476 35.3384 129.166C34.5768 130.862 32.9347 131.716 30.4256 131.716C28.5622 131.76 26.7532 131.088 25.3734 129.838C23.9795 128.583 22.9029 126.524 22.1436 123.66C21.3843 120.795 20.957 117.034 20.8618 112.375L0.258789 115.464C0.526243 123.523 1.82838 130.078 4.16521 135.131C6.50203 140.183 9.95854 143.922 14.5347 146.348C19.1109 148.765 24.8113 149.973 31.636 149.973C37.4701 149.973 42.52 148.765 46.7856 146.348C50.9418 144.047 54.3735 140.637 56.6962 136.501C59.0545 132.249 60.2614 127.457 60.198 122.598C60.198 115.077 58.5604 108.764 55.2852 103.66C51.9696 98.5198 47.9014 93.9034 43.2158 89.9641Z" fill="white"/>
<path d="M111.222 91.9784L88.868 39.5957H71.8994V148.389H92.5025V91.9784L114.86 148.389H131.152V39.5957H111.222V91.9784Z" fill="white"/>
<path d="M187.308 118.302C187.308 120.549 187.15 122.794 186.835 125.019C186.518 127.257 185.778 129.093 184.615 130.526C183.452 131.959 181.566 132.675 178.958 132.673C176.444 132.673 174.581 131.957 173.368 130.526C172.156 129.095 171.37 127.26 171.012 125.019C170.654 122.798 170.475 120.552 170.475 118.302V39.5957H146.639V114.674C146.639 122.283 147.582 128.708 149.467 133.948C151.353 139.188 154.654 143.173 159.371 145.904C164.083 148.632 170.614 149.998 178.964 150C187.314 150.002 193.824 148.637 198.493 145.904C203.158 143.173 206.457 139.189 208.39 133.951C210.323 128.713 211.288 122.289 211.283 114.677V39.5957H187.314L187.308 118.302Z" fill="white"/>
<path d="M267.163 89.9641L258.143 82.0396C255.349 79.6324 252.8 76.9552 250.534 74.0472C248.599 71.4927 247.633 68.2024 247.638 64.1763C247.664 62.1945 248.198 60.2523 249.188 58.5338C250.219 56.6507 251.857 55.7103 254.101 55.7126C256.163 55.7126 257.69 56.3614 258.681 57.659C259.671 58.9566 260.322 60.7922 260.632 63.1658C260.978 65.9523 261.181 68.7545 261.241 71.5617L281.98 69.0083C281.871 65.6037 281.489 62.2133 280.837 58.8695C280.16 55.3232 278.885 51.9169 277.067 48.7951C275.213 45.619 272.518 43.051 268.982 41.091C265.446 39.1311 260.754 38.1398 254.907 38.1172C245.478 38.1172 238.026 40.5575 232.553 45.4382C227.079 50.3188 224.342 57.3696 224.342 66.5906C224.342 73.1283 225.755 78.6136 228.582 83.0467C231.44 87.5054 234.959 91.5068 239.019 94.9148L248.447 103.124C252.126 106.262 255.043 109.374 257.198 112.459C259.354 115.545 260.431 119.328 260.431 123.809C260.436 125.661 260.046 127.493 259.286 129.183C258.524 130.881 256.885 131.731 254.369 131.733C252.507 131.777 250.699 131.104 249.321 129.855C247.927 128.6 246.849 126.541 246.087 123.676C245.326 120.812 244.9 117.051 244.809 112.392L224.206 115.481C224.474 123.54 225.776 130.095 228.112 135.148C230.449 140.2 233.906 143.939 238.482 146.365C243.058 148.782 248.759 149.99 255.583 149.99C261.417 149.99 266.467 148.782 270.733 146.365C274.888 144.055 278.315 140.635 280.63 136.491C282.988 132.239 284.195 127.447 284.132 122.588C284.132 115.067 282.493 108.754 279.216 103.65C275.905 98.5135 271.843 93.9005 267.163 89.9641Z" fill="white"/>
<path d="M307.577 135.734H294.308V148.969H307.577V135.734Z" fill="white"/>
<path d="M342.044 129.719C342.043 131.156 341.942 132.592 341.742 134.015C341.602 135.298 341.11 136.517 340.321 137.539C339.573 138.454 338.366 138.913 336.7 138.915C335.091 138.915 333.898 138.456 333.123 137.539C332.305 136.525 331.784 135.306 331.617 134.015C331.389 132.595 331.275 131.158 331.277 129.719V79.3574H316.025V127.396C316.025 132.27 316.628 136.381 317.834 139.729C318.942 142.963 321.194 145.683 324.168 147.379C327.183 149.124 331.361 149.998 336.703 150C342.046 150.002 346.21 149.129 349.198 147.379C352.162 145.668 354.413 142.954 355.542 139.729C356.777 136.379 357.395 132.268 357.395 127.396V79.3574H342.044V129.719Z" fill="white"/>
<path d="M400.852 120.35C398.734 117.061 396.135 114.106 393.141 111.584L387.361 106.515C385.573 104.974 383.942 103.26 382.493 101.398C381.255 99.7659 380.638 97.6613 380.64 95.0842C380.657 93.8161 380.997 92.5732 381.629 91.4729C381.923 90.9008 382.377 90.4258 382.935 90.1056C383.494 89.7854 384.134 89.6338 384.777 89.6689C386.097 89.6689 387.072 90.0838 387.705 90.9134C388.337 91.743 388.754 92.9186 388.956 94.4399C389.176 96.2226 389.306 98.0153 389.343 99.8111L402.603 98.1767C402.532 95.9984 402.286 93.8292 401.868 91.6899C401.437 89.4217 400.621 87.2431 399.458 85.2472C398.226 83.1578 396.442 81.4464 394.3 80.2999C392.034 79.0407 389.033 78.4111 385.298 78.4111C379.264 78.4111 374.495 79.9721 370.991 83.094C367.487 86.2159 365.737 90.728 365.742 96.6305C365.742 100.813 366.648 104.322 368.462 107.159C370.29 110.016 372.541 112.58 375.139 114.765L381.17 120.007C383.284 121.751 385.166 123.758 386.77 125.979C388.15 127.955 388.84 130.376 388.84 133.242C388.844 134.427 388.594 135.6 388.106 136.68C387.619 137.77 386.57 138.314 384.961 138.311C383.769 138.339 382.613 137.908 381.731 137.108C380.84 136.307 380.151 134.989 379.664 133.154C379.177 131.318 378.904 128.912 378.845 125.935L365.653 127.898C365.828 133.057 366.661 137.253 368.152 140.488C369.644 143.723 371.856 146.116 374.789 147.667C377.715 149.213 381.362 149.986 385.729 149.986C389.462 149.986 392.695 149.213 395.426 147.667C398.084 146.188 400.277 144 401.76 141.35C403.266 138.629 404.037 135.563 403.997 132.455C403.997 127.649 402.948 123.614 400.852 120.35Z" fill="white"/>
</g>
<defs>
<clipPath id="clip0_119_565">
<rect width="404" height="150" fill="white"/>
</clipPath>
</defs>
</svg>
