<svg width="622" height="136" viewBox="0 0 622 136" fill="none" xmlns="http://www.w3.org/2000/svg">
<g clip-path="url(#clip0_119_597)">
<path d="M61.0445 1.34668L52.1505 59.862L32.7587 1.34668H14.0865L0 94.0554H19.1143L28.0603 35.54L47.5127 94.0554H66.0116L80.1588 1.34668H61.0445Z" fill="white"/>
<path d="M94.3055 1.34668L80.167 94.0554H99.2813L113.368 1.34668H94.3055Z" fill="white"/>
<path d="M157.7 0.00895918C151.845 -0.16608 146.06 1.322 141.013 4.30154C135.927 7.30233 131.512 11.8035 127.767 17.8051C123.823 24.3181 121.078 31.4876 119.662 38.9728C118.066 46.3535 117.399 53.9057 117.677 61.4527C118.127 71.7643 120.792 79.9353 125.669 85.9658C130.547 91.9964 137.236 95.1159 145.737 95.3245C151.719 95.5018 157.648 94.166 162.979 91.4403C168.227 88.7788 172.666 84.7547 175.834 79.7876C179.147 74.5881 181.08 68.6273 181.452 62.4694L162.788 62.7213C162.043 67.6512 160.326 71.463 157.639 74.1568C154.952 76.8505 151.357 78.1134 146.855 77.9454C139.886 77.6442 136.493 72.274 136.678 61.835C136.869 55.9324 137.372 50.0442 138.187 44.1953C140.388 25.982 146.52 17.0665 156.581 17.4488C160.627 17.6226 163.571 18.9173 165.415 21.333C167.258 23.7487 168.151 27.7836 168.093 33.4376L187.164 33.4984C186.719 23.1404 183.917 15.0129 178.756 9.11558C173.595 3.21828 166.576 0.18275 157.7 0.00895918Z" fill="white"/>
<path d="M257.294 16.4319C255.119 11.5964 251.669 7.44741 247.316 4.43166C242.982 1.60374 237.924 0.0946824 232.753 0.0868904C223.737 -0.121659 215.765 3.01813 208.836 9.50632C204.501 13.6445 200.991 18.5723 198.494 24.0265C195.658 30.0849 193.716 36.5246 192.73 43.1435C191.706 49.0806 191.351 55.1143 191.672 61.1309C192.337 71.4425 195.226 79.6772 200.341 85.8352C205.455 91.9932 212.24 95.1794 220.695 95.3937C226.077 95.596 231.419 94.3985 236.203 91.9179C240.825 89.4605 244.903 86.0909 248.192 82.0119C251.69 77.6649 254.491 72.7983 256.496 67.5872C258.659 62.0591 260.141 56.2872 260.908 50.3994C261.676 45.0777 261.929 39.6941 261.663 34.3237C261.381 28.1316 259.897 22.054 257.294 16.4319ZM240.606 55.0308C239.15 62.6081 236.784 68.3809 233.507 72.3491C230.23 76.3174 226.318 78.1769 221.77 77.9278C214.835 77.6265 211.182 72.0855 210.812 61.3047C210.69 56.5584 210.951 51.81 211.593 47.106C212.708 37.2173 214.999 29.7356 218.467 24.6609C221.934 19.5862 226.312 17.1995 231.6 17.5008C238.46 17.9294 242.074 23.4472 242.444 34.0543C242.615 41.0933 241.998 48.1294 240.606 55.0308Z" fill="white"/>
<path d="M307.97 1.40796L278.731 1.33838L264.645 94.0471H283.768L288.57 62.5302L301.989 62.5996C307.809 62.6895 313.572 61.4473 318.841 58.9675C323.764 56.6445 327.96 53.0179 330.977 48.4791C334.117 43.6269 335.929 38.0319 336.23 32.2558C336.866 23.1376 334.583 15.7167 329.382 9.99323C324.181 4.26972 317.043 1.40796 307.97 1.40796ZM313.839 40.0764C311.267 43.5522 307.557 45.3509 302.708 45.4726L291.197 45.3422L295.279 18.535L308.638 18.5958C310.784 18.6785 312.816 19.5837 314.316 21.1245C315.838 22.8302 316.753 24.994 316.916 27.2767C317.442 32.3456 316.416 36.6122 313.839 40.0764Z" fill="white"/>
<path d="M412.393 34.2628C412.115 28.0937 410.642 22.0377 408.058 16.4319C405.883 11.5964 402.434 7.44741 398.081 4.43166C393.746 1.60465 388.688 0.0956752 383.517 0.0868904C374.502 -0.121659 366.527 3.01813 359.592 9.50632C355.259 13.6469 351.75 18.5741 349.25 24.0265C346.421 30.0868 344.482 36.526 343.494 43.1435C342.47 49.0806 342.116 55.1143 342.437 61.1309C343.101 71.4425 345.991 79.6772 351.105 85.8352C356.22 91.9932 363.002 95.1794 371.451 95.3937C376.836 95.5975 382.181 94.4 386.968 91.9179C391.59 89.4605 395.668 86.0909 398.956 82.0119C402.455 77.6666 405.254 72.7995 407.252 67.5872C409.417 62.0593 410.902 56.2875 411.673 50.3994C412.433 45.0565 412.674 39.6523 412.393 34.2628ZM391.371 55.0308C389.921 62.6081 387.554 68.3809 384.272 72.3491C380.989 76.3174 377.077 78.1769 372.534 77.9278C365.599 77.6265 361.947 72.0855 361.577 61.3047C361.463 56.5583 361.726 51.8103 362.366 47.106C363.481 37.2173 365.773 29.7356 369.24 24.6609C372.708 19.5862 377.085 17.1995 382.373 17.5008C389.233 17.9294 392.848 23.4472 393.218 34.0543C393.389 41.0938 392.77 48.1302 391.371 55.0308Z" fill="white"/>
<path d="M484.412 49.6696L484.802 45.7854C485.59 38.8187 485.001 31.7645 483.068 25.0261C480.878 17.7269 477.153 11.9657 471.894 7.74257C466.675 3.53061 460.147 1.2888 453.447 1.40796L429.522 1.33838L415.436 94.0471H442.768C449.714 93.9858 456.5 91.9455 462.333 88.1643C468.506 84.1755 473.596 78.7149 477.147 72.2711C481.059 65.303 483.53 57.6161 484.412 49.6696ZM465.74 39.6072L465.635 41.7101C464.89 53.5974 462.532 62.4259 458.562 68.1958C454.592 73.9656 449.327 76.8621 442.768 76.8853L437.176 76.8244L446.07 18.6045L453.387 18.6654C455.322 18.6678 457.222 19.1816 458.897 20.1549C460.571 21.1282 461.959 22.5266 462.922 24.2093C465.055 27.6851 465.988 32.8177 465.722 39.6072H465.74Z" fill="white"/>
<path d="M509.837 76.8588L513.252 54.7005H543.159L545.673 38.1469H515.705L518.731 18.6041H554.168L556.795 1.34668H502.182L488.096 94.0554H542.595L545.222 76.8588H509.837Z" fill="white"/>
<path d="M615.239 8.75058C610.263 3.85547 603.172 1.40796 593.966 1.40796L565.238 1.33838L551.16 94.0471H570.231L575.268 61.2615H585.887L594.833 94.0471H615.308V92.9697L604.308 55.9C609.347 53.6235 613.676 50.0198 616.834 45.4726C619.816 41.0873 621.512 35.5433 621.922 28.8408C622.442 20.3482 620.214 13.6515 615.239 8.75058ZM601.854 34.6542C601.003 37.4195 599.312 39.8497 597.017 41.6058C594.719 43.3225 591.916 44.2215 589.051 44.1605L577.868 44.0301L581.786 18.5002L594.789 18.5611C599.332 18.8218 601.976 21.3128 602.721 26.0341C603.116 28.9357 602.818 31.8898 601.854 34.6542Z" fill="white"/>
<path d="M12.1447 129.17L11.5033 118.239H8.07916L4.15227 129.127L3.91822 118.239H0L0.858194 135.757H5.01913L8.72064 125.825L9.41413 135.757H13.5751L19.7905 118.239H15.7162L12.1447 129.17Z" fill="white"/>
<path d="M51.31 121.071C50.8293 120.138 50.104 119.354 49.2121 118.804C48.2797 118.263 47.2206 117.981 46.1435 117.987C44.3065 117.911 42.5083 118.531 41.107 119.725C40.2121 120.488 39.4732 121.417 38.9312 122.462C38.3422 123.593 37.9355 124.81 37.7262 126.068C37.5066 127.186 37.4308 128.328 37.5008 129.466C37.5476 131.189 38.1913 132.841 39.3213 134.141C39.8714 134.722 40.5362 135.182 41.2734 135.492C42.0107 135.802 42.8043 135.954 43.6036 135.939C44.7288 135.982 45.8483 135.758 46.8717 135.288C47.8256 134.835 48.6825 134.2 49.3943 133.419C50.1155 132.61 50.7011 131.688 51.128 130.691C51.5806 129.653 51.8953 128.561 52.0642 127.441C52.2226 126.435 52.275 125.416 52.2202 124.4C52.1541 123.238 51.8439 122.104 51.31 121.071ZM47.8425 128.371C47.6415 129.577 47.1239 130.707 46.3429 131.647C46.0404 132.002 45.6598 132.281 45.231 132.464C44.8023 132.646 44.3372 132.727 43.8723 132.698C42.416 132.646 41.6445 131.595 41.5665 129.561C41.5448 128.663 41.5999 127.765 41.7311 126.876C41.8402 125.361 42.339 123.9 43.1788 122.636C43.4853 122.191 43.9006 121.833 44.3848 121.596C44.869 121.358 45.4059 121.25 45.9441 121.28C47.3917 121.358 48.1459 122.401 48.2239 124.408C48.2531 125.744 48.1133 127.079 47.8078 128.379L47.8425 128.371Z" fill="white"/>
<path d="M84.2069 119.629C82.9352 118.634 81.3435 118.143 79.7339 118.247H73.6659L70.7012 135.774H74.7234L75.781 129.57H78.0174L79.8986 135.774H84.2329V135.566L81.927 128.553C82.9489 128.135 83.845 127.459 84.5276 126.589C85.183 125.668 85.5538 124.574 85.5939 123.444C85.6901 122.743 85.6139 122.029 85.3722 121.364C85.1305 120.699 84.7305 120.103 84.2069 119.629ZM81.3896 124.53C81.1982 125.066 80.8434 125.528 80.3754 125.851C79.8759 126.177 79.2895 126.343 78.6936 126.329H76.3445L77.2113 121.497H79.942C80.3467 121.472 80.7454 121.605 81.0553 121.867C81.3652 122.129 81.5625 122.501 81.6063 122.905C81.678 123.462 81.6033 124.028 81.3896 124.547V124.53Z" fill="white"/>
<path d="M104.015 135.757H115.483L116.038 132.507H108.592L109.311 128.319H115.605L116.133 125.19H109.823L110.464 121.497H117.919L118.474 118.239H106.979L104.015 135.757Z" fill="white"/>
<path d="M144.255 121.28C144.598 121.261 144.942 121.317 145.262 121.443C145.582 121.569 145.871 121.762 146.11 122.01C146.557 122.683 146.757 123.491 146.674 124.295H150.687C150.702 122.594 150.084 120.949 148.953 119.681C148.37 119.107 147.677 118.657 146.916 118.359C146.154 118.06 145.341 117.919 144.524 117.943C143.317 117.915 142.124 118.196 141.056 118.76C139.934 119.37 138.976 120.244 138.265 121.306C137.436 122.517 136.847 123.877 136.531 125.312C136.198 126.702 136.058 128.132 136.115 129.561C136.117 131.255 136.712 132.894 137.797 134.193C138.338 134.764 138.995 135.215 139.722 135.514C140.45 135.814 141.232 135.956 142.018 135.93C143.269 135.968 144.511 135.718 145.651 135.201C146.731 134.717 147.664 133.956 148.355 132.993C149.045 132.035 149.456 130.904 149.543 129.726H145.607C145.507 130.549 145.127 131.313 144.532 131.89C144.219 132.153 143.858 132.351 143.468 132.474C143.078 132.596 142.668 132.64 142.261 132.602C140.788 132.55 140.074 131.536 140.12 129.561C140.159 128.444 140.263 127.33 140.432 126.224C140.865 122.853 142.14 121.205 144.255 121.28Z" fill="white"/>
<path d="M170.382 121.497L178.305 121.523L168.432 133.35L168.016 135.757H180.984L181.539 132.507L173.642 132.481L183.48 120.585L183.879 118.239H170.946L170.382 121.497Z" fill="white"/>
<path d="M212.659 118.239L208.212 123.652L206.547 125.729L207.83 118.239H203.791L200.826 135.757H204.848L205.611 131.29L207.709 129.283L210.119 135.757H214.722L210.778 126.164L217.886 118.239H212.659Z" fill="white"/>
<path d="M234.097 135.757H238.119L241.084 118.239H237.07L234.097 135.757Z" fill="white"/>
<path d="M293.762 129.292L289.68 118.239H285.744L282.779 135.757H286.802L288.683 124.695L292.783 135.757H296.675L299.657 118.239H295.626L293.762 129.292Z" fill="white"/>
<path d="M317.506 135.757H321.528L324.493 118.239H320.479L317.506 135.757Z" fill="white"/>
<path d="M354.166 118.239L349.719 123.652L348.046 125.729L349.328 118.239H345.289L342.324 135.757H346.355L347.118 131.29L349.207 129.283L351.626 135.757H356.22L352.284 126.164L359.384 118.239H354.166Z" fill="white"/>
<path d="M389.733 121.071C389.252 120.138 388.527 119.354 387.635 118.804C386.703 118.263 385.643 117.981 384.566 117.987C382.729 117.911 380.931 118.531 379.53 119.725C378.635 120.488 377.896 121.417 377.354 122.462C376.766 123.594 376.357 124.81 376.14 126.068C375.927 127.187 375.855 128.328 375.924 129.466C375.97 131.189 376.614 132.841 377.744 134.141C378.294 134.722 378.959 135.182 379.696 135.492C380.434 135.802 381.227 135.954 382.026 135.939C383.152 135.982 384.271 135.758 385.294 135.288C386.247 134.833 387.103 134.198 387.817 133.419C388.538 132.61 389.124 131.688 389.551 130.691C390.004 129.654 390.316 128.561 390.478 127.441C390.644 126.436 390.699 125.416 390.643 124.4C390.573 123.239 390.263 122.106 389.733 121.071ZM386.265 128.371C386.071 129.577 385.556 130.709 384.774 131.647C384.471 132.001 384.09 132.28 383.662 132.462C383.233 132.644 382.768 132.725 382.304 132.698C380.847 132.646 380.076 131.595 379.998 129.561C379.976 128.663 380.031 127.765 380.163 126.876C380.272 125.361 380.771 123.9 381.61 122.636C381.916 122.191 382.331 121.832 382.816 121.595C383.3 121.357 383.837 121.249 384.376 121.28C385.815 121.355 386.575 122.398 386.655 124.408C386.683 125.745 386.537 127.08 386.222 128.379L386.265 128.371Z" fill="white"/>
<path d="M409.705 121.497H414.612L412.193 135.757H416.224L418.642 121.497H423.627L424.182 118.239H410.277L409.705 121.497Z" fill="white"/>
<path d="M448.801 125.816L447.024 118.239L442.837 118.247L446.261 129.257L445.151 135.757H449.252L450.275 129.657L457.66 118.239H453.127L448.801 125.816Z" fill="white"/>
<path d="M484.793 129.292L480.71 118.239H476.783L473.818 135.757H477.841L479.722 124.695L483.822 135.757H487.714L490.687 118.239H486.665L484.793 129.292Z" fill="white"/>
<path d="M523.047 121.071C522.566 120.138 521.841 119.354 520.949 118.804C520.017 118.263 518.958 117.981 517.881 117.987C516.044 117.911 514.246 118.531 512.844 119.725C511.949 120.488 511.211 121.417 510.668 122.462C510.08 123.594 509.671 124.81 509.455 126.068C509.242 127.187 509.169 128.328 509.238 129.466C509.285 131.189 509.929 132.841 511.059 134.141C511.609 134.722 512.273 135.182 513.011 135.492C513.748 135.802 514.542 135.954 515.341 135.939C516.466 135.982 517.585 135.758 518.609 135.288C519.561 134.833 520.418 134.198 521.131 133.419C521.853 132.61 522.438 131.688 522.865 130.691C523.318 129.653 523.632 128.561 523.801 127.441C523.96 126.435 524.012 125.416 523.957 124.4C523.891 123.238 523.581 122.104 523.047 121.071ZM519.58 128.371C519.379 129.577 518.861 130.707 518.08 131.647C517.778 132.002 517.397 132.281 516.968 132.464C516.54 132.646 516.074 132.727 515.61 132.698C514.153 132.646 513.382 131.595 513.304 129.561C513.282 128.663 513.337 127.765 513.468 126.876C513.577 125.361 514.076 123.9 514.916 122.636C515.223 122.191 515.638 121.833 516.122 121.596C516.606 121.358 517.143 121.25 517.681 121.28C519.129 121.358 519.883 122.401 519.961 124.408C519.99 125.744 519.851 127.079 519.545 128.379L519.58 128.371Z" fill="white"/>
<path d="M556.422 129.17L555.789 118.239H552.365L548.438 129.127L548.204 118.239H544.286L545.144 135.757H549.305L552.998 125.825L553.7 135.757H557.861L564.077 118.239H560.002L556.422 129.17Z" fill="white"/>
<path d="M580.824 135.757H592.293L592.848 132.507H585.401L586.112 128.319H592.414L592.943 125.19H586.632L587.274 121.497H594.729L595.283 118.239H583.789L580.824 135.757Z" fill="white"/>
</g>
<defs>
<clipPath id="clip0_119_597">
<rect width="622" height="136" fill="white"/>
</clipPath>
</defs>
</svg>
