<svg width="228" height="228" viewBox="0 0 228 228" fill="none" xmlns="http://www.w3.org/2000/svg">
<g clip-path="url(#clip0_117_463)">
<path d="M113.998 227.997C99.0211 228.038 84.1844 225.109 70.3471 219.377C56.5098 213.646 43.9467 205.227 33.385 194.608C22.7657 184.046 14.3469 171.483 8.61569 157.646C2.88454 143.809 -0.0450936 128.972 -0.00346885 113.995C-0.0450936 99.0177 2.88454 84.181 8.61569 70.3437C14.3469 56.5063 22.7657 43.9432 33.385 33.3816C43.9467 22.7623 56.5098 14.3434 70.3471 8.61221C84.1844 2.88105 99.0211 -0.0485115 113.998 -0.0068868C128.975 -0.0485115 143.812 2.88105 157.65 8.61221C171.487 14.3434 184.05 22.7623 194.612 33.3816C205.231 43.9432 213.65 56.5063 219.381 70.3437C225.112 84.181 228.042 99.0177 228 113.995C228.042 128.972 225.112 143.809 219.381 157.646C213.65 171.483 205.231 184.046 194.612 194.608C184.05 205.227 171.487 213.646 157.65 219.377C143.812 225.109 128.975 228.038 113.998 227.997ZM113.998 13.8989C58.8025 13.8989 13.8988 58.8026 13.8988 113.998C13.8988 169.194 58.8025 214.098 113.998 214.098C169.194 214.098 214.098 169.184 214.098 113.998C214.098 58.813 169.194 13.8989 113.998 13.8989Z" fill="white"/>
<path d="M113.998 207.336C101.736 207.37 89.5888 204.971 78.26 200.278C66.9313 195.585 56.6459 188.692 47.9995 179.997C39.3046 171.35 32.4111 161.065 27.7183 149.736C23.0256 138.407 20.6267 126.26 20.6605 113.998C20.6267 101.736 23.0256 89.5888 27.7183 78.2601C32.4111 66.9313 39.3046 56.646 47.9995 47.9995C56.6459 39.3046 66.9313 32.4112 78.26 27.7184C89.5888 23.0256 101.736 20.6267 113.998 20.6605C126.26 20.6267 138.407 23.0256 149.736 27.7184C161.065 32.4112 171.35 39.3046 179.997 47.9995C188.692 56.646 195.585 66.9313 200.278 78.2601C204.971 89.5888 207.37 101.736 207.336 113.998C207.37 126.26 204.971 138.407 200.278 149.736C195.585 161.065 188.692 171.35 179.997 179.997C171.35 188.692 161.065 195.585 149.736 200.278C138.407 204.971 126.26 207.37 113.998 207.336ZM113.998 28.3049C66.7421 28.3049 28.3049 66.7456 28.3049 113.998C28.3049 161.251 66.7455 199.691 113.998 199.691C161.251 199.691 199.691 161.251 199.691 113.998C199.691 66.7456 161.251 28.3049 113.998 28.3049Z" fill="white"/>
<path d="M65.912 149.725C65.7688 149.371 65.5171 149.07 65.1928 148.867C64.8705 148.677 64.4894 148.613 64.1225 148.686C63.7175 148.752 63.3413 148.937 63.0419 149.218C62.7174 149.526 62.4688 149.906 62.3157 150.327C62.2003 150.634 62.1244 150.955 62.0898 151.282L66.1414 150.618C66.111 150.311 66.0336 150.01 65.912 149.725Z" fill="white"/>
<path d="M87.3955 150.726C87.7182 150.918 88.1004 150.985 88.4692 150.914C88.8618 150.842 89.2245 150.656 89.5116 150.379C89.8481 150.052 90.107 149.654 90.2691 149.215C90.4649 148.687 90.5604 148.127 90.5505 147.564C90.5682 147.027 90.4723 146.491 90.2691 145.993C90.1141 145.622 89.8499 145.307 89.5116 145.09C89.1985 144.903 88.8283 144.835 88.4692 144.899C88.0651 144.966 87.6909 145.154 87.3955 145.437C87.0597 145.76 86.8008 146.155 86.638 146.591C86.4397 147.122 86.343 147.685 86.3531 148.252C86.3379 148.786 86.435 149.318 86.638 149.812C86.7896 150.188 87.0543 150.507 87.3955 150.726Z" fill="white"/>
<path d="M108.894 142.282C109.244 142.227 109.574 142.079 109.849 141.855C110.133 141.623 110.357 141.326 110.502 140.99C110.656 140.634 110.734 140.251 110.732 139.864C110.739 139.504 110.663 139.147 110.509 138.821C110.373 138.544 110.15 138.318 109.873 138.179C109.556 138.039 109.202 138.001 108.862 138.071C108.521 138.123 108.199 138.263 107.928 138.477C107.662 138.7 107.452 138.982 107.316 139.301C107.158 139.666 107.079 140.06 107.087 140.458C107.067 140.723 107.1 140.989 107.186 141.24C107.271 141.492 107.406 141.723 107.584 141.921C107.755 142.085 107.964 142.203 108.193 142.266C108.422 142.33 108.662 142.335 108.894 142.282Z" fill="white"/>
<path d="M128.078 139.145C128.43 139.089 128.761 138.94 129.037 138.714C129.32 138.484 129.543 138.188 129.687 137.852C129.841 137.496 129.919 137.111 129.916 136.723C129.926 136.363 129.85 136.005 129.694 135.68C129.56 135.402 129.338 135.176 129.061 135.038C128.744 134.895 128.39 134.857 128.05 134.93C127.708 134.982 127.386 135.122 127.115 135.336C126.841 135.557 126.626 135.841 126.486 136.163C126.329 136.53 126.251 136.925 126.257 137.324C126.238 137.589 126.272 137.854 126.358 138.106C126.443 138.357 126.578 138.589 126.754 138.787C126.928 138.951 127.14 139.07 127.371 139.132C127.602 139.195 127.845 139.199 128.078 139.145Z" fill="white"/>
<path d="M54.7236 167.234L139.013 152.373V124.457L54.7236 139.318V167.234ZM124.381 135.288C124.721 134.561 125.224 133.923 125.851 133.422C126.444 132.949 127.149 132.635 127.898 132.511C128.769 132.332 129.676 132.47 130.455 132.901C131.223 133.391 131.804 134.125 132.105 134.985C132.534 136.189 132.732 137.462 132.689 138.738C132.721 140.185 132.485 141.626 131.994 142.988C131.599 144.095 130.939 145.09 130.073 145.886C129.275 146.602 128.286 147.073 127.227 147.241C126.691 147.333 126.143 147.342 125.604 147.265C125.121 147.203 124.66 147.029 124.256 146.758L125.173 144.207C125.451 144.418 125.777 144.555 126.122 144.607C126.474 144.652 126.832 144.644 127.182 144.583C127.632 144.511 128.062 144.342 128.441 144.089C128.82 143.835 129.14 143.502 129.378 143.113C129.889 142.341 130.16 141.292 130.194 139.986C130.149 140.058 130.097 140.131 130.045 140.201C129.741 140.596 129.366 140.93 128.94 141.188C128.512 141.441 128.041 141.612 127.55 141.692C126.919 141.81 126.267 141.725 125.688 141.448C125.117 141.162 124.651 140.702 124.357 140.135C124.006 139.441 123.835 138.671 123.86 137.894C123.835 136.997 124.013 136.106 124.381 135.288ZM114.437 134.958L123.026 133.55V135.67L119.047 148.335L116.351 148.777L120.198 136.685L116.643 137.265V139.565L114.437 139.913V134.958ZM105.197 138.432C105.533 137.703 106.037 137.064 106.667 136.566C107.259 136.093 107.962 135.779 108.71 135.656C109.582 135.475 110.489 135.613 111.268 136.045C112.038 136.534 112.62 137.269 112.922 138.13C113.349 139.332 113.546 140.604 113.502 141.879C113.533 143.328 113.297 144.769 112.807 146.132C112.408 147.239 111.749 148.233 110.885 149.03C110.086 149.748 109.097 150.218 108.036 150.385C107.499 150.475 106.952 150.482 106.413 150.406C105.931 150.345 105.469 150.173 105.065 149.902L105.986 147.348C106.262 147.562 106.589 147.7 106.935 147.748C107.281 147.792 107.632 147.785 107.977 147.727C108.428 147.656 108.857 147.487 109.236 147.233C109.615 146.979 109.935 146.647 110.173 146.257C110.729 145.31 111.011 144.228 110.99 143.13C110.941 143.203 110.892 143.273 110.84 143.339C110.538 143.734 110.165 144.069 109.739 144.325C109.305 144.582 108.826 144.753 108.328 144.829C107.699 144.948 107.048 144.864 106.469 144.589C105.897 144.302 105.431 143.841 105.138 143.273C104.784 142.58 104.612 141.809 104.638 141.031C104.624 140.133 104.815 139.242 105.197 138.429V138.432ZM98.4528 137.578L103.074 136.82V150.948L100.597 151.355V139.847L98.4528 140.194V137.578ZM84.481 145.594C84.7998 144.764 85.3051 144.018 85.9578 143.415C86.5357 142.871 87.2606 142.509 88.0426 142.373C88.6665 142.247 89.3147 142.356 89.8634 142.678C90.1119 142.833 90.3298 143.032 90.5062 143.266V138.022L92.8968 137.633V152.609L90.6139 152.984V151.72C90.4314 152.065 90.197 152.38 89.919 152.654C89.4076 153.142 88.7585 153.459 88.06 153.565C87.3458 153.7 86.6067 153.577 85.9751 153.217C85.3185 152.815 84.8026 152.219 84.4984 151.511C84.109 150.609 83.9228 149.633 83.9529 148.651C83.9285 147.606 84.1079 146.567 84.481 145.59V145.594ZM77.139 144.576L78.4073 144.367V141.733L80.7979 141.344V143.988L82.8479 143.641V146.073L80.7979 146.421V150.841C80.7687 151.2 80.8657 151.559 81.0723 151.855C81.162 151.962 81.2796 152.042 81.4122 152.087C81.5447 152.131 81.6869 152.137 81.8229 152.105C82.2029 152.044 82.5469 151.845 82.7889 151.546L83.4317 153.658C83.1817 153.932 82.8823 154.156 82.5491 154.319C82.2139 154.487 81.8556 154.604 81.4859 154.666C80.5152 154.824 79.7601 154.621 79.2203 154.058C78.6806 153.495 78.4096 152.569 78.4073 151.278V146.786L77.139 146.994V144.576ZM74.0986 151.907C73.8768 151.797 73.6337 151.737 73.3863 151.73C73.0909 151.73 72.7643 151.699 72.4134 151.688C72.0571 151.679 71.7019 151.645 71.3501 151.588C71.0036 151.538 70.6705 151.42 70.3703 151.24C70.0589 151.046 69.8112 150.764 69.6579 150.43C69.4584 149.967 69.3669 149.465 69.3904 148.961C69.3827 148.303 69.5379 147.654 69.8421 147.07C70.1512 146.484 70.6014 145.984 71.1521 145.615C71.767 145.199 72.4678 144.928 73.2021 144.822C73.7699 144.731 74.3474 144.718 74.9186 144.784C75.4322 144.828 75.929 144.988 76.371 145.253L75.5754 147.623C75.2111 147.392 74.8008 147.242 74.3731 147.185C73.9838 147.136 73.5895 147.143 73.2021 147.206C72.7766 147.248 72.3722 147.412 72.0381 147.679C71.9239 147.775 71.8319 147.896 71.7684 148.031C71.7048 148.167 71.6712 148.314 71.6698 148.464C71.6582 148.574 71.6775 148.684 71.7254 148.784C71.7732 148.883 71.8478 148.967 71.9408 149.027C72.1558 149.142 72.3924 149.212 72.6357 149.232C72.9588 149.267 73.2836 149.286 73.6087 149.287C73.9663 149.291 74.3231 149.323 74.6754 149.385C75.0172 149.44 75.3458 149.558 75.6448 149.732C75.9444 149.928 76.1847 150.202 76.3398 150.524C76.5458 150.982 76.641 151.482 76.6178 151.984C76.6223 152.633 76.4634 153.274 76.1556 153.846C75.8376 154.426 75.3832 154.92 74.8318 155.285C74.1954 155.697 73.4769 155.966 72.7261 156.073C72.0547 156.19 71.3683 156.19 70.6969 156.073C70.1475 155.997 69.6224 155.798 69.161 155.49L69.9567 153.099C70.3658 153.358 70.8194 153.54 71.2945 153.634C71.7957 153.744 72.3131 153.76 72.8199 153.679C73.2451 153.64 73.6507 153.482 73.9909 153.224C74.1019 153.127 74.1904 153.006 74.2504 152.871C74.3104 152.736 74.3404 152.59 74.3384 152.442C74.3533 152.339 74.3387 152.234 74.2963 152.138C74.2539 152.043 74.1854 151.962 74.0986 151.904V151.907ZM60.2866 149.624C60.6347 148.771 61.1717 148.007 61.8572 147.39C62.4874 146.819 63.2694 146.442 64.1088 146.306C64.8499 146.164 65.6174 146.275 66.2875 146.622C66.9704 147.003 67.5107 147.596 67.8267 148.311C68.2333 149.23 68.4269 150.229 68.3931 151.233C68.3931 151.355 68.3931 151.494 68.3931 151.65C68.3931 151.806 68.3723 151.956 68.3619 152.091L62.1352 153.109C62.1765 153.372 62.2549 153.627 62.368 153.867C62.5356 154.254 62.833 154.569 63.2089 154.76C63.6091 154.942 64.0566 154.993 64.4876 154.906C64.9024 154.845 65.2979 154.69 65.6446 154.454C66.0017 154.198 66.3101 153.881 66.555 153.516L67.8267 155.125C67.4677 155.733 66.9818 156.257 66.4021 156.661C65.8104 157.064 65.1361 157.33 64.4285 157.439C63.5907 157.606 62.7213 157.492 61.9545 157.116C61.2313 156.731 60.6531 156.121 60.3075 155.378C59.9013 154.509 59.7027 153.558 59.7272 152.599C59.712 151.579 59.9023 150.566 60.2866 149.621V149.624Z" fill="white"/>
<path d="M59.0734 133.634C62.4856 133.032 65.3186 131.81 67.5725 129.968C69.773 128.194 71.5182 125.92 72.663 123.335C73.8026 120.774 74.3876 118 74.3795 115.197C74.3795 112.751 74.0505 110.763 73.3927 109.235C72.8435 107.85 71.9458 106.63 70.7866 105.694C69.726 104.87 68.5254 104.245 67.2424 103.849C65.9807 103.457 64.6827 103.194 63.3681 103.063C62.0721 102.938 60.8802 102.813 59.8031 102.695C58.8988 102.627 58.015 102.392 57.197 102C56.8802 101.839 56.6177 101.589 56.4423 101.28C56.2668 100.971 56.1861 100.617 56.2102 100.263C56.2104 99.7252 56.3479 99.1966 56.6098 98.7271C56.9294 98.1795 57.3919 97.7292 57.9476 97.424C58.7347 96.99 59.5942 96.7027 60.4841 96.5762C61.954 96.3231 63.4585 96.3514 64.9178 96.6596C66.5675 97.0196 68.1567 97.6153 69.6365 98.4282L72.9688 86.437C71.1982 85.3466 69.2128 84.652 67.1486 84.4008C64.9635 84.113 62.7469 84.1658 60.5779 84.5572C57.1959 85.1548 54.3709 86.364 52.1031 88.1848C49.8884 89.9384 48.1331 92.2041 46.9884 94.7867C45.8443 97.3698 45.2593 100.166 45.2718 102.991C45.2718 105.481 45.6008 107.502 46.2587 109.054C46.8029 110.451 47.7009 111.683 48.8647 112.629C49.9314 113.456 51.141 114.079 52.4332 114.467C53.6967 114.854 54.9921 115.127 56.304 115.284C57.5862 115.437 58.7711 115.583 59.8483 115.729C60.7578 115.819 61.6421 116.081 62.4543 116.5C62.7746 116.681 63.0373 116.948 63.212 117.271C63.3866 117.595 63.466 117.961 63.4411 118.328C63.447 118.84 63.2993 119.342 63.0172 119.77C62.6762 120.249 62.2147 120.629 61.6794 120.871C60.8815 121.237 60.0356 121.487 59.1672 121.615C57.3049 121.933 55.3975 121.873 53.559 121.438C51.6994 121.027 49.9276 120.29 48.3261 119.259L44.7715 131.355C46.4278 132.487 48.5404 133.271 51.1094 133.707C53.7485 134.141 56.4427 134.116 59.0734 133.634Z" fill="white"/>
<path d="M88.4629 106.16L100.951 125.184L110.058 123.578V76.8955L99.2588 78.7996V100.027L86.7742 80.9991L77.667 82.6079V129.291L88.4629 127.387V106.16Z" fill="white"/>
<path d="M147.14 70.356L136.25 72.274V97.483C136.25 101.041 135.804 103.644 134.913 105.291C134.021 106.938 132.792 107.899 131.226 108.175C129.695 108.441 128.474 107.911 127.563 106.583C126.653 105.256 126.199 102.813 126.201 99.2551V74.0461L115.124 75.9989V101.677C115.124 108.657 116.532 113.832 119.349 117.202C122.166 120.572 126.094 121.814 131.132 120.927C136.17 120.04 140.098 117.413 142.915 113.046C145.732 108.68 147.14 103.004 147.14 96.0202V70.356Z" fill="white"/>
<path d="M178.051 104.752C179.19 102.191 179.774 99.4175 179.764 96.6144C179.764 94.1682 179.437 92.1807 178.781 90.6518C178.23 89.2681 177.332 88.049 176.175 87.1111C175.115 86.2875 173.914 85.6625 172.631 85.266C171.369 84.8746 170.071 84.6126 168.757 84.4842C167.457 84.3556 166.269 84.234 165.188 84.1124C164.285 84.0443 163.402 83.8086 162.586 83.4175C162.269 83.2567 162.006 83.0062 161.831 82.6973C161.655 82.3883 161.575 82.0346 161.599 81.6801C161.599 81.1425 161.737 80.614 161.998 80.1443C162.318 79.5968 162.78 79.1464 163.336 78.8413C164.122 78.4076 164.98 78.1204 165.869 77.9934C167.34 77.7407 168.846 77.769 170.306 78.0768C171.956 78.4374 173.545 79.0331 175.025 79.8455L178.357 67.8542C176.587 66.7626 174.601 66.0668 172.537 65.8146C170.351 65.5285 168.133 65.5813 165.963 65.9709C162.586 66.5686 159.762 67.7778 157.492 69.5985C155.277 71.3529 153.52 73.6183 152.373 76.2005C151.23 78.7837 150.647 81.5795 150.66 84.4043C150.66 86.8945 150.989 88.9156 151.647 90.4676C152.191 91.8656 153.089 93.0979 154.253 94.0431C155.318 94.8702 156.527 95.4934 157.818 95.8812C159.083 96.2676 160.379 96.5409 161.693 96.6978C162.975 96.8507 164.156 96.9966 165.237 97.1426C166.146 97.2328 167.031 97.4946 167.843 97.914C168.163 98.0944 168.425 98.3619 168.599 98.6854C168.773 99.0089 168.852 99.3752 168.826 99.7416C168.833 100.254 168.687 100.756 168.406 101.184C168.063 101.662 167.602 102.043 167.068 102.289C166.269 102.651 165.423 102.9 164.556 103.029C162.693 103.347 160.786 103.287 158.947 102.852C157.087 102.441 155.314 101.703 153.711 100.673L150.143 112.775C151.803 113.906 153.916 114.689 156.48 115.124C159.129 115.563 161.833 115.538 164.472 115.051C167.884 114.451 170.716 113.229 172.968 111.385C175.166 109.611 176.909 107.336 178.051 104.752Z" fill="white"/>
<path d="M158.009 122.689C156.545 121.954 154.853 121.757 152.933 122.098L144.434 123.595V148.096L152.933 146.598C154.81 146.279 156.565 145.455 158.009 144.214C159.52 142.897 160.693 141.237 161.432 139.374C162.289 137.219 162.708 134.914 162.665 132.595C162.665 130.077 162.254 127.979 161.432 126.302C160.726 124.75 159.521 123.478 158.009 122.689ZM156.272 136.935C155.98 137.785 155.485 138.551 154.83 139.166C154.224 139.711 153.476 140.072 152.672 140.208L150.24 140.639V129.009L152.672 128.582C153.403 128.423 154.166 128.523 154.83 128.867C155.491 129.254 156 129.856 156.272 130.573C156.646 131.547 156.821 132.587 156.786 133.63C156.814 134.749 156.644 135.864 156.286 136.924L156.272 136.935Z" fill="white"/>
<path d="M170.5 134.051L177.793 132.765V126.817L170.5 128.102V125.232L178.801 123.766V117.536L164.784 120.01V144.51L179.121 141.98V135.75L170.5 137.272V134.051Z" fill="white"/>
<path d="M62.0549 151.866C62.0538 151.668 62.0654 151.471 62.0896 151.275L61.6553 151.344V153.2L62.1209 153.123C62.0749 152.874 62.0527 152.62 62.0549 152.366V151.866Z" fill="white"/>
<path d="M67.0927 150.455L66.1406 150.611C66.1619 150.79 66.1724 150.97 66.1719 151.15L67.0927 150.455Z" fill="white"/>
</g>
<defs>
<clipPath id="clip0_117_463">
<rect width="228" height="228" fill="white"/>
</clipPath>
</defs>
</svg>
