<svg width="592" height="95" viewBox="0 0 592 95" fill="none" xmlns="http://www.w3.org/2000/svg">
<g clip-path="url(#clip0_120_754)">
<path d="M42.4667 14.1689C37.0271 14.1689 32.8821 15.572 30.0316 18.378C27.1811 21.184 25.7559 25.2118 25.7559 30.4615V64.5887C25.7559 69.83 27.1811 73.8578 30.0316 76.6723C32.8821 79.4867 37.0271 80.8939 42.4667 80.8939C47.9062 80.8939 52.0513 79.4867 54.9018 76.6723C57.7523 73.8578 59.1817 69.83 59.1902 64.5887V43.3287H42.9854V52.5936H48.6399V65.2333C48.6399 69.4466 46.7003 71.5532 42.8209 71.5532C38.9416 71.5532 37.0061 69.4466 37.0145 65.2333V29.8169C37.0145 25.5615 38.95 23.4296 42.8209 23.4212C46.6919 23.4128 48.6315 25.5447 48.6399 29.8169V36.023H59.2407V30.4615C59.2407 25.2118 57.8113 21.184 54.9523 18.378C52.0934 15.572 47.9315 14.1689 42.4667 14.1689Z" fill="white"/>
<path d="M85.5905 14.1689C80.0835 14.1689 75.8668 15.5888 72.9404 18.4285C70.014 21.2682 68.5508 25.2793 68.5508 30.4615V64.5887C68.5508 69.771 70.014 73.7862 72.9404 76.6344C75.8668 79.4825 80.0835 80.9024 85.5905 80.8939C91.0891 80.8939 95.3058 79.4741 98.2406 76.6344C101.175 73.7947 102.634 69.7794 102.618 64.5887V30.4615C102.618 25.2793 101.159 21.2682 98.2406 18.4285C95.3227 15.5888 91.106 14.1689 85.5905 14.1689ZM91.4095 65.1954C91.4095 69.455 89.4615 71.5785 85.5905 71.5785C81.7196 71.5785 79.7841 69.455 79.7841 65.1954V29.8043C79.7841 25.5489 81.7196 23.417 85.5905 23.4086C89.4615 23.4086 91.4095 25.5447 91.4095 29.8043V65.1954Z" fill="white"/>
<path d="M129.322 14.1689C123.815 14.1689 119.598 15.5888 116.672 18.4285C113.746 21.2682 112.287 25.2793 112.295 30.4615V64.5887C112.295 69.771 113.754 73.7862 116.672 76.6344C119.59 79.4825 123.807 80.9024 129.322 80.8939C134.837 80.8939 139.054 79.4741 141.972 76.6344C144.89 73.7947 146.349 69.7794 146.349 64.5887V30.4615C146.349 25.2793 144.89 21.2682 141.972 18.4285C139.054 15.5888 134.837 14.1689 129.322 14.1689ZM135.141 65.1954C135.141 69.4592 133.201 71.5869 129.322 71.5785C125.443 71.5701 123.507 69.4424 123.516 65.1954V29.8043C123.516 25.5489 125.451 23.417 129.322 23.4086C133.193 23.4001 135.133 25.532 135.141 29.8043V65.1954Z" fill="white"/>
<path d="M173.977 15.0918H156.849V79.9082H173.977C179.551 79.9082 183.734 78.5515 186.526 75.8382C189.317 73.1249 190.709 69.1434 190.7 63.8937V31.1063C190.7 25.8566 189.309 21.8751 186.526 19.1618C183.743 16.4485 179.56 15.0918 173.977 15.0918ZM179.492 64.3866C179.644 66.123 179.113 67.85 178.012 69.2024C177.442 69.7205 176.772 70.1185 176.044 70.3726C175.316 70.6267 174.544 70.7316 173.774 70.6812H168.069V24.3441H173.774C174.545 24.2953 175.317 24.4023 176.045 24.6586C176.774 24.9148 177.443 25.3151 178.012 25.8355C179.116 27.186 179.648 28.9145 179.492 30.6513V64.3866Z" fill="white"/>
<path d="M239.656 43.6068C236.789 41.5077 234.234 39.0141 232.066 36.1999C230.706 34.2776 229.977 31.9812 229.979 29.6273C229.979 25.4941 231.838 23.4212 235.583 23.4212C236.347 23.3688 237.114 23.4779 237.833 23.7414C238.552 24.0049 239.208 24.4169 239.757 24.9506C240.831 26.3344 241.342 28.0727 241.187 29.8169V33.1538H251.787V30.4615C251.787 25.2119 250.413 21.184 247.664 18.378C244.914 15.572 240.854 14.1689 235.481 14.1689C230.042 14.1689 225.897 15.572 223.046 18.378C220.196 21.184 218.766 25.1487 218.758 30.272C218.714 33.8337 219.669 37.3365 221.516 40.3837C224.164 44.2439 227.434 47.6393 231.193 50.4323C234.078 52.5244 236.636 55.0334 238.783 57.8771C240.158 60.016 240.867 62.5146 240.82 65.0564C240.985 66.837 240.455 68.6124 239.34 70.0111C238.761 70.5512 238.077 70.9658 237.33 71.229C236.583 71.4922 235.79 71.5983 235.001 71.5406C231.13 71.5406 229.194 69.434 229.194 65.2207V60.7715H218.53V64.475C218.53 69.7162 219.922 73.7441 222.705 76.5585C225.488 79.373 229.603 80.7802 235.051 80.7802C240.55 80.7802 244.746 79.3603 247.638 76.5206C250.531 73.6809 251.973 69.6067 251.965 64.298C252.053 60.5739 251.14 56.8942 249.321 53.6427C247.55 50.6682 244.328 47.3229 239.656 43.6068Z" fill="white"/>
<path d="M286.538 53.8957H286.323L275.418 15.0918H261.352V79.9082H271.345V32.5978H271.548L285.007 79.9082H296.532V15.0918H286.538V53.8957Z" fill="white"/>
<path d="M330.054 65.284C330.213 67.0191 329.686 68.7475 328.586 70.0998C327.384 71.0565 325.892 71.5774 324.355 71.5774C322.818 71.5774 321.326 71.0565 320.124 70.0998C319.013 68.7526 318.481 67.0215 318.643 65.284V15.0918H307.423V64.5383C307.423 69.7796 308.852 73.8074 311.711 76.6218C314.57 79.4363 318.715 80.8435 324.146 80.8435C329.586 80.8435 333.731 79.4363 336.581 76.6218C339.432 73.8074 340.861 69.7796 340.87 64.5383V15.0918H330.054V65.284Z" fill="white"/>
<path d="M370.939 43.6068C368.072 41.5077 365.517 39.0141 363.349 36.1999C361.985 34.2791 361.251 31.9826 361.249 29.6273C361.249 25.4983 363.122 23.4296 366.866 23.4212C367.63 23.3688 368.397 23.4779 369.116 23.7414C369.836 24.0049 370.491 24.4169 371.04 24.9506C372.11 26.3367 372.62 28.0732 372.47 29.8169V33.1538H383.071V30.4615C383.071 25.2119 381.696 21.184 378.947 18.378C376.197 15.572 372.137 14.1689 366.765 14.1689C361.325 14.1689 357.18 15.572 354.33 18.378C351.479 21.184 350.05 25.1487 350.041 30.272C349.998 33.8337 350.953 37.3365 352.799 40.3837C355.448 44.2439 358.718 47.6393 362.476 50.4323C365.362 52.5244 367.92 55.0334 370.066 57.8771C371.442 60.016 372.15 62.5146 372.103 65.0564C372.268 66.837 371.738 68.6124 370.623 70.0111C370.044 70.5512 369.36 70.9658 368.614 71.229C367.867 71.4922 367.074 71.5983 366.284 71.5406C362.413 71.5406 360.478 69.434 360.478 65.2207V60.7715H349.839V64.475C349.839 69.7162 351.23 73.7441 354.013 76.5585C356.796 79.373 360.912 80.7802 366.36 80.7802C371.858 80.7802 376.075 79.3603 379.01 76.5206C381.945 73.6809 383.387 69.6067 383.336 64.298C383.425 60.5739 382.512 56.8942 380.693 53.6427C378.879 50.6682 375.628 47.3229 370.939 43.6068Z" fill="white"/>
<path d="M578.414 0H13.5862C9.98395 0.00334663 6.53023 1.43464 3.98304 3.97972C1.43586 6.52481 0.00334939 9.97573 0 13.575V81.4249C0.00334939 85.0242 1.43586 88.4752 3.98304 91.0203C6.53023 93.5654 9.98395 94.9967 13.5862 95H578.414C582.016 94.9967 585.47 93.5654 588.017 91.0203C590.564 88.4752 591.997 85.0242 592 81.4249V13.575C591.997 9.97573 590.564 6.52481 588.017 3.97972C585.47 1.43464 582.016 0.00334663 578.414 0ZM589.47 81.4249C589.467 84.3538 588.301 87.1617 586.228 89.2327C584.155 91.3038 581.345 92.4687 578.414 92.4721H13.5862C10.655 92.4687 7.84471 91.3038 5.772 89.2327C3.69929 87.1617 2.53337 84.3538 2.53002 81.4249V13.575C2.53337 10.6462 3.69929 7.83826 5.772 5.76725C7.84471 3.69624 10.655 2.53129 13.5862 2.52794H578.414C581.345 2.53129 584.155 3.69624 586.228 5.76725C588.301 7.83826 589.467 10.6462 589.47 13.575V81.4249Z" fill="white"/>
<path d="M491.255 20.0464C470.837 20.0464 454.848 28.1105 454.848 38.3993V57.3588C454.848 67.6475 470.837 75.7116 491.255 75.7116C511.672 75.7116 527.674 67.6475 527.674 57.3588V38.3993C527.674 28.1105 511.634 20.0464 491.255 20.0464ZM525.144 57.3462C525.144 65.9159 509.635 73.171 491.255 73.171C472.874 73.171 457.378 65.9159 457.378 57.3462V54.7045C462.653 61.5173 475.657 66.2192 491.255 66.2192C506.852 66.2192 519.869 61.5173 525.144 54.7045V57.3462ZM525.144 47.8664C525.144 56.4487 509.635 63.6913 491.255 63.6913C472.874 63.6913 457.378 56.4487 457.378 47.8664V45.2626C462.653 52.0754 475.657 56.7774 491.255 56.7774C506.852 56.7774 519.869 52.0754 525.144 45.2626V47.8664ZM491.255 54.1862C472.887 54.1862 457.378 46.9437 457.378 38.374C457.378 29.8042 472.887 22.5491 491.255 22.5491C509.623 22.5491 525.144 29.7916 525.144 38.374C525.144 46.9563 509.635 54.2115 491.255 54.2115V54.1862Z" fill="white"/>
<path d="M566.434 52.4674C565.701 50.8622 563.373 51.2034 559.844 52.3536C556.425 53.4968 553.072 54.826 549.799 56.3352C546.505 57.8064 543.295 59.4605 540.185 61.2899C537.01 63.2112 535.201 64.7279 535.922 66.3458L539.806 74.865C539.996 75.2821 540.198 75.7371 541.273 75.7371C542.968 75.7371 546.814 74.5995 556.137 70.3652C571.419 63.426 570.799 62.0862 570.318 60.9992L566.434 52.4674ZM538.402 65.6759C539.783 64.385 541.353 63.311 543.057 62.4907L547.143 71.4649C545.426 72.1971 543.648 72.7765 541.83 73.1965L538.402 65.6759ZM549.496 70.5169L545.296 61.2899C548.737 59.5204 552.886 57.6497 556.479 56.234L560.679 65.4484C557.175 67.1547 553.063 69.0254 549.496 70.5422V70.5169ZM562.93 64.2855L558.844 55.3745C560.586 54.6335 562.427 54.1522 564.309 53.9463L567.725 61.4669C566.215 62.5493 564.61 63.4927 562.93 64.2855Z" fill="white"/>
<path d="M425.613 39.398C422.136 38.464 418.61 37.7255 415.05 37.1861C411.381 36.6931 409.028 36.7184 408.586 38.45L406.22 47.5127C405.815 49.0295 407.485 49.889 411.47 51.3046C414.177 52.24 417.858 53.327 421.83 54.3635C430.066 56.5122 434.202 57.1821 436.315 57.1821C438.427 57.1821 438.503 56.5627 438.642 55.9939L441.008 46.9313C441.236 45.8948 441.83 43.6197 425.613 39.398ZM408.839 47.4621L410.926 39.4739C412.811 39.3384 414.705 39.4918 416.543 39.9289L414.013 49.4719C412.223 48.9594 410.483 48.2868 408.813 47.4621H408.839ZM416.429 50.2176L418.959 40.4092C422.754 41.1929 427.156 42.3431 430.85 43.5059L428.32 53.327C424.55 52.4801 420.161 51.3299 416.441 50.2176H416.429ZM436.327 54.6415C434.464 54.5567 432.613 54.2942 430.799 53.8578L433.329 44.3022C435.125 44.8273 436.831 45.6199 438.389 46.6532L436.327 54.6415Z" fill="white"/>
<path d="M504.309 33.1036C500.792 32.2919 497.232 31.68 493.645 31.2708C477.023 29.2358 476.732 31.5741 476.605 32.5348L475.467 41.8376C475.277 43.3923 477.061 44.0243 481.134 44.8458C483.917 45.4146 487.687 46.0087 491.735 46.5016C495.849 47.0784 499.992 47.4203 504.145 47.5255C508.534 47.5255 508.648 46.6533 508.737 45.9076L509.875 36.6047C510.09 34.8857 507.902 33.9883 504.309 33.1036ZM478.06 41.471L479.072 33.2679C480.923 32.8902 482.821 32.7921 484.701 32.9771L483.436 42.7603C481.61 42.4882 479.811 42.0568 478.06 41.471ZM486.004 43.1774L487.269 33.0656C491.064 33.3437 495.656 33.8998 499.464 34.5571L498.199 44.6689C494.341 44.3529 489.825 43.7967 486.004 43.2027V43.1774ZM506.245 44.9217C504.384 45.0862 502.513 45.0862 500.653 44.9217L501.918 35.1259C503.786 35.4026 505.603 35.9564 507.307 36.7691L506.245 44.9217Z" fill="white"/>
</g>
<defs>
<clipPath id="clip0_120_754">
<rect width="592" height="95" fill="white"/>
</clipPath>
</defs>
</svg>
