<svg width="226" height="226" viewBox="0 0 226 226" fill="none" xmlns="http://www.w3.org/2000/svg">
<g clip-path="url(#clip0_120_660)">
<path d="M113.002 226C98.1558 226.042 83.4492 223.138 69.7332 217.457C56.0172 211.776 43.5643 203.431 33.0956 192.904C22.5689 182.436 14.2233 169.983 8.54185 156.267C2.86038 142.551 -0.0440925 127.844 -0.0034742 112.998C-0.0446632 98.1522 2.85955 83.4454 8.54105 69.7294C14.2226 56.0134 22.5685 43.5606 33.0956 33.0922C43.5641 22.5652 56.0169 14.2194 69.7329 8.53792C83.4489 2.85643 98.1556 -0.0478949 113.002 -0.00689614C127.848 -0.0475144 142.554 2.857 156.27 8.53847C169.986 14.2199 182.439 22.5656 192.908 33.0922C203.434 43.5608 211.78 56.0136 217.461 69.7297C223.142 83.4457 226.045 98.1524 226.003 112.998C226.045 127.844 223.141 142.551 217.46 156.267C211.779 169.983 203.434 182.435 192.908 192.904C182.439 203.431 169.986 211.776 156.27 217.457C142.554 223.137 127.847 226.041 113.002 226ZM113.002 13.7769C58.2901 13.7769 13.7769 58.2902 13.7769 113.002C13.7769 167.713 58.2901 212.223 113.002 212.223C167.713 212.223 212.223 167.713 212.223 113.002C212.223 58.2902 167.713 13.7769 113.002 13.7769Z" fill="white"/>
<path d="M113.002 205.521C100.848 205.553 88.8073 203.175 77.578 198.524C66.3487 193.872 56.1535 187.039 47.5824 178.421C38.9647 169.85 32.1326 159.655 27.4816 148.426C22.8306 137.196 20.4531 125.156 20.4867 113.002C20.4532 100.847 22.831 88.8065 27.4826 77.5771C32.1343 66.3477 38.9672 56.1526 47.5859 47.582C56.1565 38.9633 66.3516 32.1304 77.581 27.4788C88.8103 22.8272 100.851 20.4493 113.006 20.4828C125.16 20.4496 137.201 22.8277 148.43 27.4793C159.659 32.1309 169.854 38.9636 178.425 47.582C187.044 56.1526 193.877 66.3477 198.528 77.5771C203.18 88.8065 205.558 100.847 205.524 113.002C205.558 125.156 203.18 137.197 198.528 148.426C193.876 159.655 187.044 169.851 178.425 178.421C169.854 187.04 159.658 193.872 148.428 198.524C137.198 203.175 125.157 205.553 113.002 205.521ZM113.002 28.0601C66.1606 28.0601 28.0605 66.1636 28.0605 113.002C28.0605 159.84 66.164 197.943 113.002 197.943C159.84 197.943 197.944 159.836 197.944 113.002C197.944 66.1671 159.837 28.0601 113.002 28.0601Z" fill="white"/>
<path d="M60.3123 132.878L46.1289 98.7047L51.7499 96.3764L65.9298 130.547L60.3123 132.878ZM62.1308 122.969L58.0287 113.969L62.5648 91.8851L68.8471 89.2778L64.8931 109.52L63.6979 115.509L62.1308 122.969ZM77.0271 125.942L62.1584 114.658L63.5361 107.512L83.6297 123.207L77.0271 125.942Z" fill="white"/>
<path d="M96.8789 118.392C93.414 119.829 90.1431 119.599 87.0663 117.703C83.9894 115.806 81.412 112.355 79.334 107.35L71.3916 88.2099L77.0436 85.8644L84.8654 104.711C86.2156 107.967 87.6656 110.112 89.2155 111.145C89.918 111.649 90.7409 111.959 91.6013 112.044C92.4618 112.128 93.3294 111.985 94.1166 111.627C94.926 111.322 95.6407 110.808 96.189 110.139C96.7373 109.47 97.1 108.668 97.2405 107.814C97.5987 105.978 97.1028 103.437 95.7526 100.192L87.9308 81.349L93.5035 79.0552L101.446 98.1913C103.526 103.202 104.15 107.464 103.316 110.98C102.483 114.495 100.337 116.966 96.8789 118.392Z" fill="white"/>
<path d="M113.281 110.897L99.0977 76.7236L109.671 72.3357C111.638 71.4589 113.814 71.1613 115.943 71.4781C117.987 71.8406 119.878 72.7992 121.378 74.2335C123.011 75.7305 124.36 77.7649 125.425 80.3366C126.491 82.9083 126.972 85.2837 126.868 87.4627C126.824 89.5382 126.166 91.5541 124.978 93.2559C123.699 94.9888 121.952 96.3201 119.942 97.0928L112.51 100.193L113.543 95.5877L118.93 108.572L113.281 110.897ZM113.908 96.4315L109.837 93.714L116.956 90.7589C118.699 90.0356 119.785 88.9748 120.214 87.5764C120.644 86.178 120.474 84.5512 119.704 82.6959C118.919 80.8085 117.886 79.5226 116.605 78.8384C115.323 78.1541 113.805 78.1737 112.048 78.897L104.932 81.8521L105.883 77.0509L113.908 96.4315Z" fill="white"/>
<path d="M138.475 100.441L124.292 66.2703L129.944 63.9214L144.127 98.095L138.475 100.441Z" fill="white"/>
<path d="M154.976 93.5937L143.469 65.8642L135.654 69.1087L132.981 62.6645L154.263 53.8301L156.94 60.2742L149.121 63.5187L160.632 91.2482L154.976 93.5937Z" fill="white"/>
<path d="M91.9371 170.937C90.0138 171.743 87.9504 172.162 85.865 172.17C83.973 172.222 82.0925 171.862 80.3542 171.113L79.8031 164.359C81.3241 164.98 82.9421 165.329 84.5837 165.392C86.2088 165.48 87.8332 165.207 89.3402 164.593C90.2799 164.245 91.1363 163.704 91.8545 163.005C92.3764 162.484 92.72 161.812 92.8361 161.083C92.9258 160.366 92.8211 159.638 92.533 158.975C92.3901 158.572 92.169 158.201 91.8824 157.883C91.5957 157.565 91.2492 157.306 90.8625 157.122C90.0502 156.781 89.174 156.618 88.2932 156.644C87.315 156.644 86.2553 156.702 85.1141 156.819C83.9467 156.931 82.7732 156.968 81.601 156.93C80.4104 156.896 79.2308 156.692 78.0982 156.323C76.8913 155.911 75.7921 155.233 74.8813 154.34C73.8733 153.387 72.9904 151.999 72.2327 150.175C71.445 148.341 71.0744 146.354 71.1478 144.358C71.2267 142.46 71.8588 140.626 72.9663 139.082C74.0937 137.49 75.8078 136.216 78.1086 135.259C79.6537 134.621 81.2932 134.241 82.9615 134.136C84.6155 134.016 86.2767 134.231 87.8454 134.769L88.5928 141.496C87.212 141.077 85.7751 140.873 84.3323 140.89C83.0899 140.908 81.8616 141.156 80.709 141.62C79.7689 141.969 78.925 142.535 78.2463 143.273C77.7357 143.832 77.413 144.537 77.3233 145.288C77.2629 146.028 77.3884 146.772 77.6884 147.451C77.8309 147.846 78.05 148.209 78.3331 148.52C78.6162 148.83 78.9577 149.081 79.3382 149.259C80.1472 149.597 81.0213 149.751 81.8972 149.71C82.872 149.69 83.9293 149.631 85.0763 149.535C86.2232 149.438 87.3908 149.397 88.579 149.4C89.7618 149.403 90.9368 149.591 92.0612 149.958C93.2685 150.371 94.3679 151.048 95.2781 151.942C96.2861 152.895 97.1621 154.273 97.906 156.075C98.6839 157.888 99.0373 159.854 98.9393 161.824C98.8406 163.723 98.2039 165.556 97.1035 167.107C95.9853 168.699 94.2631 169.975 91.9371 170.937Z" fill="white"/>
<path d="M105.93 164.445L91.7471 130.271L96.4243 128.332L121.047 146.955L118.777 147.895L108.565 123.293L114.148 120.975L128.332 155.149L123.689 157.074L99.0316 138.475L101.301 137.532L111.514 162.137L105.93 164.445Z" fill="white"/>
<path d="M145.219 148.825C141.754 150.265 138.483 150.035 135.406 148.136C132.329 146.237 129.752 142.785 127.674 137.779L119.731 118.643L125.383 116.298L133.205 135.141C134.555 138.395 136.004 140.54 137.552 141.578C138.255 142.082 139.079 142.392 139.94 142.477C140.801 142.562 141.669 142.418 142.456 142.061C143.266 141.755 143.981 141.242 144.529 140.572C145.077 139.903 145.44 139.101 145.58 138.248C145.939 136.411 145.443 133.869 144.092 130.622L136.271 111.779L141.854 109.464L149.796 128.6C151.876 133.613 152.5 137.875 151.666 141.385C150.833 144.896 148.684 147.376 145.219 148.825Z" fill="white"/>
<path d="M169.89 138.589C167.964 139.393 165.9 139.812 163.814 139.822C161.922 139.872 160.042 139.51 158.303 138.761L157.749 132.01C159.27 132.631 160.888 132.981 162.529 133.044C164.156 133.131 165.781 132.857 167.289 132.241C168.227 131.893 169.082 131.354 169.8 130.657C170.321 130.134 170.665 129.46 170.782 128.731C170.875 128.014 170.77 127.285 170.479 126.624C170.19 125.81 169.591 125.143 168.812 124.771C167.997 124.432 167.12 124.269 166.239 124.292C165.261 124.292 164.201 124.35 163.06 124.467C161.893 124.579 160.721 124.617 159.55 124.581C158.36 124.546 157.18 124.342 156.047 123.975C154.84 123.563 153.741 122.885 152.83 121.991C151.822 121.034 150.939 119.644 150.182 117.824C149.391 115.99 149.02 114.002 149.097 112.006C149.174 110.109 149.806 108.275 150.915 106.733C152.04 105.14 153.755 103.865 156.058 102.91C157.601 102.271 159.24 101.89 160.907 101.784C162.562 101.666 164.224 101.881 165.794 102.418L166.538 109.148C165.157 108.729 163.721 108.524 162.278 108.538C161.035 108.557 159.807 108.805 158.655 109.272C157.715 109.62 156.871 110.185 156.192 110.921C155.683 111.481 155.361 112.185 155.269 112.936C155.21 113.678 155.336 114.422 155.637 115.103C155.925 115.899 156.517 116.548 157.284 116.907C158.094 117.245 158.969 117.4 159.846 117.362C160.817 117.338 161.878 117.283 163.025 117.186C164.172 117.09 165.34 117.045 166.528 117.049C167.711 117.051 168.886 117.24 170.01 117.607C171.217 118.019 172.316 118.697 173.227 119.59C174.237 120.543 175.113 121.915 175.855 123.706C176.631 125.52 176.985 127.487 176.888 129.458C176.786 131.357 176.15 133.189 175.053 134.742C173.937 136.342 172.216 137.624 169.89 138.589Z" fill="white"/>
</g>
<defs>
<clipPath id="clip0_120_660">
<rect width="226" height="226" fill="white"/>
</clipPath>
</defs>
</svg>
