<svg width="590" height="125" viewBox="0 0 590 125" fill="none" xmlns="http://www.w3.org/2000/svg">
<g clip-path="url(#clip0_117_456)">
<path d="M352.657 91.8164C349.701 99.3096 346.918 106.491 344.023 113.632C339.839 123.999 342.602 121.608 331.607 124.235C330.454 124.512 329.291 125.06 328.159 124.995C326.671 124.909 324.685 124.784 323.888 123.858C323.091 122.932 322.989 120.803 323.451 119.51C325.767 113.038 328.372 106.672 330.876 100.271C332.267 96.7129 333.664 93.155 334.852 90.1255C330.393 91.8918 325.777 93.7991 321.095 95.5202C319.866 95.9731 318.429 95.9379 317.083 95.958C311.142 96.0536 308.115 93.8847 306.561 88.2031C305.835 85.5661 305.495 82.8234 304.941 79.8996C304.387 80.3274 303.88 80.6897 303.418 81.0923C291.631 90.9005 278.026 96.2499 262.695 97.2413C259.568 97.3804 256.437 97.0788 253.396 96.3455C244.118 94.2722 239.116 87.574 240.543 78.2289C243.164 61.1589 252.223 48.9 269.012 42.9013C269.165 42.846 269.297 42.7303 269.175 42.8007C267.844 40.0379 266.128 37.4361 265.32 34.5777C263.898 29.5755 265.229 24.6941 267.626 20.2555C273.796 8.81684 283.069 1.52487 296.476 0.508325C299.34 0.339492 302.213 0.680365 304.956 1.51481C310.913 3.26608 313.874 7.69964 313.508 13.8794C313.158 19.7825 310.933 24.8048 305.743 28.1262C302.981 29.8926 300.208 29.7969 298.172 28.1262C296.135 26.4554 296.308 24.9608 298.446 23.5517C302.453 20.9147 303.666 16.8586 303.687 12.4804C303.687 9.59686 300.792 7.44802 297.471 8.09217C294.993 8.56018 292.301 9.49621 290.392 11.0512C284.298 16.0232 281.302 22.6761 281.606 30.5166C281.804 35.549 284.196 39.4743 289.066 41.5879C289.574 41.8093 290.082 42.0911 290.915 42.544C290.234 42.846 289.899 43.007 289.549 43.1429C275.279 48.7037 266.651 59.0655 263.502 73.8406C262.075 80.5236 265.843 85.0125 272.714 85.3598C281.947 85.8278 289.859 82.0787 297.354 77.3331C304.85 72.5875 304.834 72.4718 304.819 63.7456C304.819 56.363 304.753 48.9805 304.743 41.603C304.743 38.0803 305.84 37.0285 309.461 37.0184C312.34 37.0184 315.219 37.0184 318.094 37.0184C321.395 37.0184 322.664 38.2564 322.664 41.5879C322.7 46.8769 322.664 52.1559 322.664 57.45C322.664 57.8426 322.715 58.2401 322.781 59.2416C329.337 52.8605 336.01 47.2594 338.524 38.508C338.016 38.2413 337.879 38.1004 337.747 38.1055C332.069 38.3772 329.743 35.1313 331.81 29.8171C333.08 26.5561 336.604 24.7847 340.804 25.2225C343.968 25.5748 346.004 27.7387 346.476 31.3419C346.812 33.8937 346.617 36.4866 345.903 38.9609C345.19 41.4352 343.973 43.7387 342.327 45.7295C337.843 51.3709 333.09 56.8914 327.809 61.7829C324.254 65.0691 321.958 68.1439 322.933 73.1008C323.385 75.3805 323.096 77.8162 323.665 80.0556C324.411 83.0096 326.712 84.2275 329.718 83.528C336.122 82.0183 339.631 77.4035 341.957 71.7874C344.943 64.581 347.685 57.2789 350.534 50.0222C353.017 43.7015 355.612 37.4412 357.948 31.045C358.923 28.4231 360.487 27.3512 363.285 27.5223C366.084 27.6934 368.872 27.5223 371.66 27.5626C375.301 27.6028 376.794 29.802 375.565 33.2492C375.24 34.1701 374.91 35.0961 374.732 35.5943C378.546 34.3563 382.466 32.9573 386.468 31.8552C388.052 31.4224 389.835 31.508 391.511 31.6237C397.803 32.0515 401.784 35.9315 402.358 42.1918C403.033 49.5492 401.058 56.4888 398.742 63.3279C395.644 72.512 391.125 80.8206 383.918 87.5891C377.185 93.93 369.242 96.6475 360.051 95.9278C357.197 95.641 354.551 94.6949 352.657 91.8164ZM384.838 48.7943C384.894 42.1062 382.451 39.736 378.155 41.0595C374.305 42.227 371.197 44.5822 369.674 48.4169C365.464 58.9849 361.351 69.6385 357.217 80.2569C356.089 83.1455 357.146 84.7106 360.32 84.8666C364.509 85.0729 367.937 83.3015 370.674 80.3727C379.419 71.0275 383.126 59.5133 384.838 48.7943Z" fill="white"/>
<path d="M190.928 87.5234C186.282 91.7859 181.137 94.5688 175.186 95.686C166.167 97.4071 161.556 93.9347 160.895 84.6147C159.402 86.1244 158.097 87.4781 156.772 88.8017C153.045 92.6476 148.106 95.1187 142.771 95.8068C134.788 96.8132 131.162 94.3977 128.674 86.8994C125.241 89.1992 121.869 91.801 118.177 93.8391C113.81 96.2446 108.98 96.5667 104.125 95.3941C99.6157 94.3121 96.5536 91.031 96.6704 86.4314C96.7705 82.6856 97.4293 78.9751 98.6255 75.4205C100.794 68.9941 103.638 62.7992 105.984 56.4282C107.087 53.5366 107.852 50.5295 108.264 47.4654C108.665 44.1692 106.603 42.5941 103.328 43.4999C101.774 43.9277 100.002 44.758 99.0571 45.9658C96.6602 49.0557 94.1109 52.2261 92.6229 55.774C87.6665 67.6051 83.091 79.5924 78.5104 91.5695C77.4948 94.2719 75.8849 95.4444 73.0157 95.3136C70.2328 95.1828 67.4296 95.3387 64.6416 95.2683C61.1985 95.1878 59.5227 92.8427 60.7618 89.6622C67.8714 71.3845 75.0233 53.1185 82.2175 34.8643C82.959 32.9671 84.2895 32.1367 86.3107 32.1669C89.1037 32.2072 91.8968 32.1669 94.6898 32.1669C99.1232 32.1669 100.317 33.4401 99.8646 37.8435C104.333 34.1698 109.158 31.6536 115.054 31.6486C124.286 31.6486 128.897 36.7716 126.774 45.7393C125.347 51.7229 122.884 57.4799 120.757 63.2873C119.025 68.0077 116.851 72.5721 115.328 77.3479C113.713 82.4105 116.344 84.8965 121.488 83.2308C123.24 82.6671 125.149 81.5399 126.216 80.1006C128.643 76.8245 131.086 73.4075 132.64 69.6835C137.322 58.4663 141.633 47.0981 145.975 35.745C146.961 33.1684 148.479 31.9958 151.287 32.1569C154.096 32.3179 156.873 32.1569 159.661 32.1971C163.541 32.2475 165.029 34.3812 163.628 37.9894C158.971 49.9414 154.248 61.8682 149.627 73.8302C148.84 75.7716 148.29 77.7988 147.986 79.8691C147.621 82.7326 149.413 84.3581 152.146 83.4623C154.228 82.7779 156.543 81.706 157.869 80.0956C160.235 77.2713 162.174 74.1217 163.628 70.7454C168.391 59.201 172.87 47.5359 177.339 35.8657C178.355 33.1986 179.878 31.9556 182.818 32.1569C185.515 32.338 188.232 32.1568 190.944 32.2021C194.94 32.2323 196.443 34.4064 195.006 38.1303C190.217 50.3842 185.357 62.6231 180.614 74.8971C179.96 76.6158 179.502 78.4017 179.248 80.2214C179.005 81.9274 179.893 83.0245 181.691 83.4623C182.641 83.7197 183.633 83.787 184.609 83.6604C185.585 83.5338 186.526 83.2157 187.377 82.7247C188.228 82.2338 188.972 81.5798 189.565 80.8009C190.158 80.022 190.589 79.1339 190.832 78.1883C191.964 74.2379 194.351 71.2084 197.738 68.8532C198.942 68.1019 199.979 67.1156 200.785 65.9545C207.235 55.3462 213.654 44.7127 219.905 33.9836C221.164 31.8247 222.444 30.461 225.075 30.2798C228.696 30.008 232.281 29.2733 235.897 28.9361C238.903 28.6392 240.635 30.3804 240.31 33.274C238.898 46.0211 237.263 58.7481 236.024 71.5204C234.698 84.8814 225.628 92.9031 213.425 95.1727C209.205 95.9577 204.66 95.7866 200.369 95.2381C196.078 94.6896 192.878 91.7507 190.928 87.5234ZM219.666 45.9557L205.874 68.1436C208.093 70.9115 208.255 72.5671 206.559 75.34C204.696 78.3594 202.375 79.2552 198.089 78.5053C196.631 82.2193 198.399 85.3142 202.268 85.8124C209.748 86.7786 215.731 82.1589 216.914 74.1574C217.676 69.0243 218.006 63.8308 218.503 58.6626C218.894 54.6115 219.245 50.5553 219.666 45.9557Z" fill="white"/>
<path d="M536.226 78.732C538.48 76.87 540.796 75.0584 542.97 73.131C544.168 72.0792 545.001 70.5141 546.342 69.7592C549.211 68.1388 551.009 65.6427 552.593 62.9957C558.443 53.1925 564.212 43.3425 569.9 33.4454C570.971 31.5834 572.16 30.5467 574.369 30.3454C578.157 29.9982 581.905 29.2886 585.693 28.9213C588.578 28.6394 590.264 30.3253 589.964 33.1535C588.527 46.4038 587.1 59.6642 585.505 72.9095C583.931 85.9686 573.866 93.4266 562.475 95.3289C558.983 95.9503 555.417 96.0605 551.892 95.656C544.275 94.6495 540.969 90.6689 539.74 81.832C535.606 84.3482 531.351 86.6027 527.501 89.3806C520.305 94.6043 512.322 96.6373 503.593 95.7718C496.651 95.0823 493.065 91.5395 491.019 84.0714C487.855 86.2454 484.793 88.6258 481.477 90.5733C473.9 95.032 465.688 97.0399 456.908 95.5302C448.717 94.1211 444.319 88.9881 445.203 80.8557C447.132 63.0108 454.663 47.8783 469.34 36.9026C476.084 31.8702 483.96 30.0636 492.395 31.4073C498.245 32.3433 500.988 36.1679 500.109 42.0106C498.464 52.946 491.684 60.1826 482.238 64.9533C477.734 67.2279 472.524 68.1237 467.649 69.7039C466.968 69.9253 465.947 70.3782 465.841 70.8865C465.236 73.7399 464.591 76.6386 464.48 79.5372C464.358 82.7429 465.805 84.63 469.015 84.8615C472.483 85.1081 476.221 85.1131 479.476 84.0865C485.296 82.2497 490.552 79.2403 493.853 73.6745C494.812 72.0641 496.453 70.8462 497.798 69.4623C499.525 67.6809 501.678 66.1611 502.938 64.1028C509.113 54.0078 515.125 43.8071 521.032 33.5561C522.159 31.6035 523.398 30.5366 525.688 30.3203C529.243 29.9982 532.722 29.3138 536.251 28.9464C539.882 28.5438 541.472 30.1441 541.065 33.7675C539.562 47.1872 538.039 60.5986 536.495 74.0016C536.332 75.3905 535.946 76.7492 535.662 78.1231L536.226 78.732ZM520.676 45.8402L506.812 68.164C508.844 70.5997 509.153 72.4566 507.762 74.9024C505.731 78.5005 502.653 79.7335 498.662 78.2539C497.976 83.7896 500.038 86.0592 505.36 85.8982C512.419 85.6868 517.167 81.062 518.056 73.0454C519.081 64.138 519.792 55.2005 520.676 45.8402ZM547.591 78.2841C546.54 83.0045 548.566 85.712 553.116 85.8982C559.825 86.1699 565.147 82.295 566.365 75.5566C567.381 69.88 567.767 64.0877 568.356 58.3407C568.772 54.2795 569.067 50.2033 569.428 45.9409L555.625 68.1992C557.697 70.6097 557.9 72.9246 556.26 75.4459C554.233 78.5458 551.638 79.4265 547.571 78.264L547.591 78.2841ZM468.029 63.7707C477.343 62.0999 483.422 57.0977 487.469 49.7454C488.993 46.9876 489.5 43.631 490.14 40.4756C490.496 38.669 489.125 37.5317 487.317 37.9846C485.681 38.3222 484.147 39.0339 482.838 40.063C475.738 46.3586 471.747 54.6117 468.029 63.7707Z" fill="white"/>
<path d="M31.0892 63.5595C28.7786 64.0929 26.407 64.4049 24.2183 65.2C21.3311 66.2418 18.8361 68.1367 17.0706 70.6287C15.3051 73.1208 14.354 76.0899 14.3461 79.1348C14.2445 85.0529 18.7642 88.953 25.2644 88.5605C38.3968 87.7704 46.8674 74.0319 41.4337 61.929C39.5242 57.6715 36.8226 53.7563 34.385 49.7405C32.2064 46.1524 29.8146 42.6951 27.6512 39.0919C20.6889 27.6834 24.6651 14.9363 34.3443 7.53868C43.4091 0.634218 53.7231 -1.36365 64.814 0.870741C70.4002 1.99297 75.0519 4.89667 76.4941 10.7796C77.9363 16.6624 76.6312 22.1075 72.269 26.5763C70.0904 28.8056 67.343 29.9732 64.2453 29.4649C62.8335 29.2284 60.8784 28.393 60.4265 27.311C59.9186 26.0781 60.5433 24.1658 61.1273 22.7315C62.214 20.0442 64.0727 17.6085 64.8039 14.8558C66.1345 9.86366 63.0519 6.33091 57.8061 6.2051C51.2398 6.04909 45.3287 11.152 43.8712 18.2225C43.1145 21.8811 43.3634 25.4641 45.3388 28.6748C48.0405 33.0178 50.8641 37.3004 53.8247 41.4722C57.4861 46.6355 61.2999 51.7182 62.5288 58.0792C64.7531 69.5833 60.8581 79.1549 52.2403 86.7639C41.7942 95.9732 29.388 99.2745 15.6766 96.7532C3.1282 94.4434 -2.54935 84.7509 1.1121 72.5473C3.41764 64.878 8.22168 59.2769 15.8899 56.4436C19.1616 55.1885 22.7743 55.1119 26.0972 56.2273C29.5708 57.3595 31.3888 60.218 31.0892 63.5595Z" fill="white"/>
<path d="M433.848 39.2679C436.519 37.587 438.779 35.7452 441.348 34.6632C444.086 33.4155 447.01 32.6184 450.007 32.303C454.608 31.9356 457.38 34.9501 457.426 39.5597C457.463 42.3498 456.452 45.0538 454.59 47.1471C452.729 49.2403 450.148 50.5734 447.351 50.8877C443.867 51.3054 442.46 50.2335 442.074 46.8215C441.988 46.0717 441.978 45.3118 441.937 44.562C441.861 43.0925 441.059 42.3326 439.622 42.6345C435.183 43.5605 431.242 45.2765 429.465 49.8611C424.089 63.5962 418.731 77.338 413.392 91.0866C411.919 94.876 411.285 95.3037 407.242 95.3037C404.622 95.3037 402.002 95.354 399.376 95.3037C395.923 95.2282 394.206 92.8932 395.435 89.7328C402.545 71.4652 409.695 53.2076 416.886 34.9601C417.668 32.9472 419.065 32.1369 421.187 32.1873C424.062 32.2577 426.941 32.1873 429.82 32.1873C434.122 32.1873 435.478 34.0442 434.178 38.0752C434.096 38.3771 434.01 38.6791 433.848 39.2679Z" fill="white"/>
</g>
<defs>
<clipPath id="clip0_117_456">
<rect width="590" height="125" fill="white"/>
</clipPath>
</defs>
</svg>
