<svg width="578" height="104" viewBox="0 0 578 104" fill="none" xmlns="http://www.w3.org/2000/svg">
<g clip-path="url(#clip0_120_734)">
<path d="M193.93 39.48C191.93 39.48 192.18 39.57 192.18 41.21C192.18 61.6033 192.18 81.99 192.18 102.37C192.18 102.82 192.18 103.26 192.18 103.71H203.97C203.97 103.64 203.97 103.57 203.97 103.5V39.59C203.45 39.59 202.97 39.49 202.58 39.49L193.93 39.48Z" fill="white"/>
<path d="M508.97 30.8899C506.787 24.7085 503.301 19.0682 498.75 14.35C495.214 10.6791 491.103 7.60888 486.58 5.26001C483.856 3.82529 480.986 2.68547 478.02 1.85999C475.811 1.24622 473.567 0.765296 471.3 0.419922C469.23 0.119922 467.12 0.13 465.03 0C461.699 0.00755732 458.377 0.362752 455.12 1.05994C452.92 1.54736 450.752 2.17191 448.63 2.92993C444.71 4.34777 441.007 6.3068 437.63 8.75C433.285 11.8596 429.51 15.6959 426.47 20.09C423.151 24.8771 420.775 30.2531 419.47 35.9299C418.757 39.0072 418.371 42.1514 418.32 45.3099C418.211 50.2156 418.886 55.1071 420.32 59.7999C421.217 62.7092 422.407 65.5202 423.87 68.1899C426.986 73.9405 431.28 78.9698 436.47 82.95C439.58 85.3558 442.997 87.3365 446.63 88.84C448.334 89.5512 450.077 90.1654 451.85 90.6799C453.62 91.1799 455.46 91.48 457.27 91.86C459.557 92.3273 461.886 92.5518 464.22 92.5299C466.35 92.5299 468.47 92.3399 470.59 92.1699C471.75 92.0804 472.903 91.91 474.04 91.6599C475.68 91.2899 477.31 90.89 478.9 90.36C480.81 89.73 482.7 89.02 484.55 88.24C487.382 86.9697 490.065 85.39 492.55 83.5299C498.711 79.0562 503.669 73.1264 506.98 66.2699C508.155 63.9154 509.093 61.45 509.78 58.9099C510.284 57.0216 510.675 55.1049 510.95 53.1699C511.28 51.0407 511.48 48.8935 511.55 46.74C511.566 44.2016 511.372 41.6662 510.97 39.1599C510.576 36.3443 509.906 33.5742 508.97 30.8899ZM428.4 64.5399C427.338 62.4283 426.449 60.2346 425.74 57.98C424.645 54.372 424.056 50.6297 423.99 46.86C423.992 44.9039 424.119 42.9499 424.37 41.01C424.756 37.7422 425.576 34.5405 426.81 31.49C427.24 30.38 427.81 29.31 428.27 28.21C428.384 27.8845 428.606 27.6078 428.898 27.4259C429.191 27.244 429.538 27.1678 429.88 27.21C433.01 27.21 436.14 27.21 439.26 27.21C439.736 27.2378 440.212 27.1474 440.644 26.9468C441.077 26.7461 441.454 26.4414 441.74 26.0599C443.564 23.9303 445.693 22.0835 448.06 20.58C453.148 17.2687 459.099 15.5296 465.17 15.58C467.985 15.6328 470.782 16.0496 473.49 16.8199C478.312 18.1868 482.729 20.709 486.357 24.1678C489.985 27.6267 492.715 31.918 494.31 36.6699C495.639 40.7219 496.109 45.0063 495.69 49.25C495.327 53.2473 494.139 57.1256 492.2 60.6399C489.206 66.1515 484.61 70.6252 479.02 73.47C476.859 74.5847 474.564 75.4149 472.19 75.9399C467.155 77.1718 461.892 77.1158 456.884 75.7771C451.877 74.4384 447.288 71.8599 443.54 68.2799C442.821 67.5853 442.152 66.8401 441.54 66.0499C441.331 65.7593 441.052 65.5269 440.728 65.3746C440.404 65.2224 440.047 65.1553 439.69 65.1799C438.04 65.2399 436.39 65.1799 434.69 65.1799C432.97 65.1799 431.25 65.1799 429.53 65.1799C429.299 65.1968 429.069 65.145 428.868 65.0311C428.667 64.9172 428.504 64.7463 428.4 64.5399ZM505.71 49.95C504.92 57.7451 501.912 65.1506 497.044 71.2897C492.175 77.4287 485.65 82.0443 478.24 84.59C476.025 85.3238 473.754 85.8789 471.45 86.25C467.977 86.7194 464.464 86.8199 460.97 86.5499C458.57 86.3765 456.195 85.9407 453.89 85.25C451.023 84.4664 448.253 83.3663 445.63 81.97C440.526 79.2497 436.044 75.4967 432.47 70.95C432.21 70.61 432.01 70.2199 431.67 69.6799C432.19 69.6799 432.45 69.59 432.67 69.59C434.35 69.59 436.04 69.59 437.67 69.59C437.976 69.5825 438.281 69.6432 438.561 69.7677C438.841 69.8922 439.09 70.0774 439.29 70.3099C442.244 73.4103 445.742 75.9422 449.61 77.7799C452.237 79.0377 455.012 79.9584 457.87 80.5199C459.709 80.9426 461.593 81.1375 463.48 81.1C464.55 81.1 465.62 81.1 466.68 81.1C469.463 81.0492 472.224 80.6012 474.88 79.7699C479.129 78.5392 483.101 76.5021 486.58 73.7699C490.21 70.957 493.251 67.4572 495.53 63.47C496.815 61.21 497.848 58.8156 498.61 56.33C499.413 53.7032 499.877 50.9845 499.99 48.24C500.199 44.4327 499.79 40.6167 498.78 36.9399C497.301 31.66 494.601 26.8014 490.9 22.756C487.198 18.7105 482.598 15.5913 477.47 13.6499C475.092 12.7795 472.633 12.1465 470.13 11.76C467.103 11.3239 464.033 11.2567 460.99 11.5599C458.535 11.7938 456.117 12.3243 453.79 13.1399C449.754 14.4593 445.998 16.5139 442.71 19.2C441.55 20.2 440.48 21.2 439.39 22.2C439.22 22.4109 439.01 22.5853 438.771 22.7125C438.532 22.8397 438.27 22.9171 438 22.9399C436.08 22.9399 434.15 22.9399 432.23 22.9399C432.091 22.9304 431.954 22.907 431.82 22.87C431.69 22.41 432.02 22.16 432.24 21.87C435.114 18.0746 438.63 14.8119 442.63 12.23C445.133 10.5915 447.817 9.24914 450.63 8.22998C452.507 7.58992 454.416 7.04918 456.35 6.60999C460.588 5.69167 464.945 5.44858 469.26 5.88989C471.79 6.09692 474.289 6.58672 476.71 7.34998C479.923 8.30788 483.009 9.65096 485.9 11.35C492.358 15.1489 497.645 20.6537 501.18 27.26C503.021 30.7137 504.342 34.4204 505.1 38.26C505.868 42.1066 506.074 46.0443 505.71 49.95Z" fill="white"/>
<path d="M576.62 22.45C575.334 18.1058 572.74 14.2642 569.189 11.45C565.422 8.56936 560.982 6.6971 556.289 6.01007C554.189 5.64216 552.062 5.44809 549.93 5.42999C541.69 5.36999 533.439 5.42999 525.189 5.42999C524.819 5.42999 524.449 5.43007 524.019 5.51007C523.979 5.69113 523.952 5.87491 523.939 6.05999C523.939 34.7267 523.939 63.3933 523.939 92.06C523.95 92.1946 523.97 92.3283 524 92.46C524.014 92.4906 524.034 92.5178 524.06 92.54L524.129 92.62C527.519 92.8132 530.917 92.7664 534.299 92.48V76.17C534.299 73.46 534.299 70.75 534.299 68.04C534.299 65.33 534.299 62.57 534.299 59.7H535.649C539.049 59.7 542.459 59.7 545.859 59.7C548.601 59.6987 551.338 59.4612 554.039 58.99C556.137 58.6515 558.195 58.0986 560.18 57.34C564.191 55.822 567.803 53.4071 570.74 50.28C574.671 46.1607 577.101 40.8384 577.639 35.17C578.163 30.9046 577.816 26.5774 576.62 22.45ZM566.539 36.36C565.858 40.2487 563.71 43.7276 560.539 46.08C558.029 47.8813 555.138 49.0821 552.089 49.59C547.739 50.41 543.349 50.3 538.959 50.31H535.349C534.349 50.31 534.349 50.22 534.349 49.23C534.349 49.06 534.349 48.89 534.349 48.72V14.8C534.789 14.8 535.019 14.7 535.259 14.7C539.999 14.7 544.749 14.62 549.479 14.83C553.198 14.8829 556.84 15.8883 560.06 17.7501C561.635 18.6898 563.005 19.9375 564.087 21.4185C565.17 22.8996 565.943 24.5836 566.359 26.3701C567.153 29.6463 567.215 33.0573 566.539 36.36Z" fill="white"/>
<path d="M46.65 56.0899C43.651 52.8481 40.1202 50.1425 36.21 48.0899C32.13 45.8799 27.98 43.7899 23.87 41.6399C21.2314 40.3411 18.7089 38.8189 16.33 37.0899C14.8774 36.0846 13.645 34.7938 12.708 33.2962C11.7709 31.7987 11.1489 30.1259 10.88 28.38C10.6303 26.6419 10.7461 24.8707 11.22 23.1799C11.9895 20.6316 13.6416 18.4407 15.88 17C18.9596 14.9705 22.5434 13.8383 26.23 13.73C29.352 13.4933 32.4905 13.5972 35.59 14.0399C39.3951 14.5581 43.0708 15.7788 46.43 17.6399L48.48 18.8399C48.5352 18.6336 48.572 18.4228 48.59 18.2099C48.59 14.8799 48.59 11.5499 48.59 8.20994C48.5994 7.98808 48.5348 7.76942 48.4063 7.58836C48.2777 7.40729 48.0926 7.27413 47.88 7.20994C46.72 6.77994 45.6 6.20991 44.42 5.92991C41.1922 5.09666 37.882 4.62374 34.55 4.51987C31.4303 4.31328 28.2987 4.37691 25.19 4.70994C22.1913 5.05301 19.2358 5.70303 16.37 6.64988C11.3717 8.20855 6.98898 11.2972 3.83996 15.48C2.0057 17.9658 0.844853 20.8834 0.469969 23.9499C0.0932105 26.708 0.177696 29.5096 0.719969 32.24C1.08152 33.8776 1.6635 35.4587 2.44998 36.9399C4.27702 40.1987 6.82116 42.9993 9.88998 45.13C12.9387 47.2715 16.1444 49.1802 19.48 50.8399C23.37 52.8999 27.31 54.84 31.18 56.98C34.0807 58.4736 36.6675 60.5105 38.8 62.98C39.9362 64.3098 40.7658 65.8734 41.23 67.5599C41.5494 68.9661 41.6605 70.4115 41.56 71.85C41.5401 73.3477 41.2222 74.8264 40.6247 76.1999C40.0272 77.5735 39.1621 78.8143 38.08 79.85C36.1774 81.5846 33.8478 82.7822 31.33 83.3199C27.9056 84.1039 24.3812 84.3568 20.88 84.0699C17.598 83.8198 14.3562 83.1889 11.22 82.1899C7.4992 81.1462 3.99202 79.4535 0.859984 77.1899C0.633952 77.0611 0.396201 76.954 0.149962 76.87C0.109312 77.0615 0.0792695 77.2551 0.0599654 77.4499C0.0599654 80.8799 0.0599654 84.32 0.0599654 87.75C0.0438492 88.0072 0.111011 88.2629 0.251494 88.479C0.391976 88.6951 0.598309 88.8602 0.839964 88.9499C2.0933 89.5033 3.3533 90.0233 4.61996 90.51C7.46146 91.5138 10.4012 92.2143 13.39 92.6C16.6436 93.1483 19.9411 93.3927 23.24 93.3299C27.1193 93.2465 30.9769 92.7265 34.74 91.7799C37.6973 91.0352 40.5093 89.8017 43.06 88.13C46.4803 85.9395 49.1468 82.753 50.7 79C51.5393 76.8604 52.042 74.6035 52.19 72.3099C52.4425 69.6764 52.2086 67.0189 51.5 64.4699C50.5561 61.3379 48.8955 58.4687 46.65 56.0899Z" fill="white"/>
<path d="M302.04 64.95C300.821 60.7503 298.423 56.9884 295.13 54.1101C292.264 51.5181 289.079 49.3034 285.65 47.52C281.86 45.52 278.01 43.52 274.19 41.52C271.579 40.2491 269.089 38.7428 266.751 37.02C264.162 35.2409 262.313 32.5772 261.55 29.53C261.105 27.5817 261.105 25.5583 261.55 23.6101C262.278 20.8422 264.039 18.4585 266.47 16.95C269.473 14.9867 272.955 13.8804 276.54 13.7501C279.728 13.4952 282.935 13.5958 286.1 14.05C289.632 14.543 293.054 15.6318 296.22 17.27C297.11 17.74 297.96 18.27 298.95 18.84C298.95 18.32 299.07 17.92 299.07 17.52C299.07 16.05 299.07 14.52 299.07 13.09C299.07 11.66 299.07 10.09 299.07 8.56C299.112 8.23635 299.033 7.9088 298.849 7.63959C298.664 7.37039 298.387 7.17836 298.07 7.10004C296.97 6.73004 295.9 6.25001 294.79 5.94001C291.66 5.13214 288.451 4.66938 285.22 4.56C282.031 4.3451 278.829 4.40537 275.65 4.74006C272.071 5.13053 268.558 5.98773 265.2 7.28998C261.58 8.67447 258.333 10.8868 255.72 13.7501C253.791 15.8492 252.35 18.3488 251.501 21.07C250.681 23.841 250.409 26.7452 250.7 29.6201C250.863 31.6906 251.374 33.719 252.21 35.6201C253.84 39.0647 256.28 42.0635 259.32 44.3601C262.729 46.8827 266.357 49.0948 270.16 50.97C273.93 52.97 277.75 54.89 281.51 56.97C284.032 58.2681 286.334 59.9555 288.33 61.97C289.871 63.4909 290.997 65.3809 291.6 67.46C291.988 69.2737 292.072 71.1388 291.85 72.98C291.787 73.799 291.615 74.606 291.34 75.3801C290.806 76.883 289.966 78.2587 288.873 79.4205C287.78 80.5823 286.458 81.5049 284.99 82.1301C283.011 82.9896 280.915 83.549 278.77 83.79C273.782 84.4151 268.721 84.0756 263.86 82.79C262.11 82.35 260.41 81.67 258.7 81.08C256.5 80.3039 254.407 79.2522 252.47 77.95L250.67 76.71C250.599 76.9654 250.549 77.2263 250.52 77.4901C250.52 80.8901 250.52 84.28 250.52 87.68C250.497 87.9372 250.56 88.1949 250.699 88.4123C250.839 88.6297 251.047 88.7943 251.29 88.8801C252.77 89.4901 254.221 90.19 255.751 90.68C257.995 91.4242 260.305 91.9501 262.65 92.2501C264.96 92.5401 267.27 92.9901 269.59 93.1301C274.531 93.4362 279.489 93.0013 284.3 91.84C286.297 91.3607 288.242 90.691 290.11 89.84C293.444 88.3731 296.358 86.0978 298.59 83.22C300.344 80.928 301.554 78.2678 302.13 75.44C302.611 73.0146 302.749 70.5338 302.54 68.07C302.478 67.0159 302.311 65.9707 302.04 64.95Z" fill="white"/>
<path d="M413.16 5.35011H355C354.614 5.37255 354.23 5.41595 353.85 5.48011C353.808 5.61723 353.778 5.75769 353.76 5.90003C353.76 8.54003 353.76 11.1801 353.76 13.8201C353.76 14.5701 353.86 14.6401 354.59 14.6801H379.02C379.02 15.3801 379.09 15.95 379.09 16.52C379.09 41.1334 379.09 65.7401 379.09 90.3401C379.09 90.6501 379.09 90.9501 379.09 91.2601C379.09 92.5901 379.09 92.6001 380.39 92.6001H389.39C389.39 91.9401 389.46 91.4401 389.46 90.9301V16.4C389.46 14.55 389.31 14.6801 391.2 14.6801H413.57C414.93 14.6801 414.93 14.68 414.93 13.29C414.93 11.23 414.93 9.17013 414.93 7.12013C414.94 5.33013 415.2 5.35011 413.16 5.35011Z" fill="white"/>
<path d="M98.1302 25.9501C96.1902 22.9301 94.2568 19.9068 92.3301 16.8801C90.1601 13.4801 87.9901 10.0901 85.8301 6.68005C85.7048 6.43971 85.5125 6.24092 85.2764 6.10779C85.0403 5.97465 84.7706 5.9129 84.5001 5.93005C80.7201 5.93005 76.9402 5.93005 73.1602 5.93005C72.9002 5.93005 72.6302 5.99013 72.3902 6.01013C72.1702 7.17013 72.2202 90.9001 72.4402 91.7501H82.2902V90.3501C82.2902 68.7901 82.2902 47.2334 82.2902 25.6801C82.2902 23.6001 82.1101 21.51 82.0201 19.42C82.0201 19.1 82.0201 18.7901 82.0201 18.4801C82.2672 18.5981 82.4678 18.7951 82.5901 19.04C83.586 21.292 84.809 23.4364 86.2401 25.4401C90.4068 31.8934 94.5668 38.3567 98.7202 44.8301C99.0702 45.3701 99.4402 45.9101 99.7902 46.4501C100.03 46.8101 100.35 46.8801 100.64 46.5801C101.029 46.2074 101.366 45.7835 101.64 45.3201C102.577 43.3209 103.712 41.4212 105.03 39.65C105.16 39.5 105.23 39.2901 105.36 39.1301C105.596 38.834 105.717 38.4632 105.702 38.0852C105.688 37.7072 105.538 37.347 105.28 37.0701C102.88 33.3501 100.497 29.6434 98.1302 25.9501Z" fill="white"/>
<path d="M140.59 5.9502H132.23C131.951 5.96545 131.673 6.00221 131.4 6.06018C131.4 6.47018 131.34 6.81014 131.34 7.14014C131.34 28.5601 131.373 49.9801 131.44 71.4001C131.44 73.6601 131.73 75.9102 131.88 78.1702C131.889 78.2833 131.889 78.3971 131.88 78.5103L131.67 78.5702C130.82 77.1902 129.97 75.7902 129.11 74.4102C128.25 73.0302 127.31 71.5902 126.4 70.1902C125.49 68.7902 124.63 67.4302 123.74 66.0402C122.85 64.6502 121.93 63.2302 121.03 61.8102C120.13 60.3902 119.32 59.0102 118.4 57.6602C117.559 56.2108 116.62 54.821 115.59 53.5002C115.151 53.8831 114.758 54.316 114.42 54.7902C113.72 56.0302 113.15 57.3402 112.42 58.5802C112.035 59.291 111.579 59.961 111.06 60.5802C110.11 61.6902 109.78 61.9402 110.76 63.4402C114.26 68.7902 117.76 74.1702 121.18 79.5402C123.66 83.3902 126.18 87.2202 128.62 91.0802C128.758 91.3295 128.966 91.5331 129.218 91.6663C129.47 91.7994 129.756 91.8564 130.04 91.8302C133.51 91.8302 137.04 91.8302 140.46 91.8302C140.76 91.8302 141.07 91.8302 141.54 91.8302C141.54 91.2702 141.61 90.8302 141.61 90.3302V6.9502C141.57 5.9502 141.47 5.9502 140.59 5.9502Z" fill="white"/>
<path d="M188.96 82.5402C186.978 81.7806 185.144 80.6808 183.54 79.2902C180.625 76.6128 178.566 73.1339 177.62 69.2902C176.609 65.4744 176.132 61.5371 176.2 57.5902C176.2 40.9769 176.2 24.3669 176.2 7.76025C176.2 7.41025 176.2 7.07025 176.2 6.76025C176.169 6.50102 176.122 6.24387 176.06 5.99023H166.23C166.23 6.52023 166.15 6.99021 166.15 7.46021C166.15 25.1002 166.15 42.7402 166.15 60.3802C166.162 64.2191 166.632 68.0428 167.55 71.7701C168.264 74.8375 169.42 77.7849 170.98 80.5201C173.144 84.2711 176.295 87.3565 180.09 89.4402C182.847 90.8951 185.802 91.9395 188.86 92.5402C189.193 92.563 189.527 92.563 189.86 92.5402C189.86 92.1002 189.92 91.7302 189.93 91.3602C189.93 90.0602 189.93 88.7502 189.93 87.4502C189.958 86.5596 190.062 85.673 190.24 84.8002C190.67 82.8602 190.47 83.1302 188.96 82.5402Z" fill="white"/>
<path d="M229.93 5.95011H221.47C219.86 5.95011 219.88 5.83017 219.88 7.51017C219.88 24.3302 219.88 41.1468 219.88 57.9601C219.931 60.2553 219.818 62.5512 219.54 64.8301C219.213 67.5705 218.541 70.2585 217.54 72.8301C216.344 75.7918 214.376 78.3784 211.84 80.3201C210.505 81.3365 209.016 82.1332 207.43 82.6801C207.084 82.7572 206.78 82.9637 206.581 83.2575C206.382 83.5512 206.303 83.91 206.36 84.2602C206.41 86.5602 206.36 88.8601 206.36 91.1601C206.36 91.4901 206.36 91.8201 206.43 92.2701C206.997 92.2636 207.563 92.2068 208.12 92.1001C210.126 91.5518 212.088 90.8532 213.99 90.0102C218.14 88.0881 221.672 85.0477 224.19 81.2301C227.066 76.6974 228.865 71.5662 229.45 66.2301C229.811 63.7161 229.998 61.1799 230.01 58.6401C230.063 41.4467 230.063 24.2534 230.01 7.0601C230.001 6.68905 229.974 6.31865 229.93 5.95011Z" fill="white"/>
<path d="M337.9 75.2301C336.758 75.2047 335.623 75.4085 334.562 75.8294C333.5 76.2503 332.534 76.8798 331.72 77.6807C330.906 78.4816 330.261 79.4376 329.823 80.4921C329.385 81.5466 329.163 82.6783 329.17 83.8201C329.081 85.0046 329.236 86.1948 329.626 87.3168C330.016 88.4388 330.633 89.4686 331.437 90.3425C332.242 91.2163 333.217 91.9156 334.303 92.3968C335.389 92.878 336.563 93.1309 337.75 93.1398C338.938 93.1487 340.115 92.9135 341.208 92.4487C342.301 91.9838 343.287 91.2993 344.105 90.4377C344.923 89.576 345.554 88.5555 345.961 87.4395C346.368 86.3235 346.541 85.1358 346.47 83.9501C346.507 82.8078 346.311 81.6699 345.895 80.6053C345.479 79.5406 344.852 78.5714 344.051 77.7563C343.25 76.9411 342.292 76.2969 341.234 75.8627C340.177 75.4285 339.043 75.2133 337.9 75.2301Z" fill="white"/>
<path d="M452.13 63.1299C455.079 65.386 458.576 66.815 462.26 67.2698C467.467 67.991 472.757 66.7938 477.146 63.9013C481.534 61.0088 484.721 56.6187 486.11 51.5499C486.782 49.0551 486.968 46.4548 486.66 43.8898C486.505 42.2546 486.169 40.6416 485.66 39.0799C484.512 35.6607 482.493 32.6 479.8 30.1999C477.637 28.2591 475.112 26.7639 472.37 25.7999C470.044 24.9897 467.58 24.6498 465.12 24.7999C462.149 24.5985 459.174 25.1487 456.47 26.3998C453.54 27.6671 450.929 29.5737 448.83 31.9799C446.359 34.7568 444.683 38.1495 443.98 41.7999C443.363 44.9396 443.449 48.177 444.23 51.2798C445.403 56.0295 448.197 60.2207 452.13 63.1299ZM465.32 27.5099C475.52 27.5799 483.91 35.8799 483.91 47.2599C483.642 51.7337 481.7 55.9427 478.47 59.0499C475.856 61.6749 472.521 63.4656 468.888 64.1951C465.256 64.9247 461.488 64.5603 458.063 63.1484C454.637 61.7364 451.707 59.3401 449.644 56.2627C447.58 53.1853 446.476 49.5651 446.47 45.8599C446.552 40.9318 448.58 36.2362 452.112 32.7981C455.644 29.3601 460.392 27.4591 465.32 27.5099Z" fill="white"/>
</g>
<defs>
<clipPath id="clip0_120_734">
<rect width="577.85" height="103.71" fill="white"/>
</clipPath>
</defs>
</svg>
