<svg width="566" height="84" viewBox="0 0 566 84" fill="none" xmlns="http://www.w3.org/2000/svg">
<g clip-path="url(#clip0_116_447)">
<path d="M59.8182 8.02271C58.2616 11.358 56.7381 14.7297 55.2171 18.0987C49.844 14.6385 43.8468 12.3104 37.5785 11.2516C28.4222 9.78254 16.9768 11.8616 16.9768 21.2289C16.8967 23.7394 17.7529 26.1873 19.3727 28.0785C22.6258 31.9044 27.9771 33.7421 33.4658 35.5123C44.0744 38.9358 55.9242 41.7701 60.0191 52.0459C62.0181 57.9601 61.7454 64.4277 59.2561 70.1447C54.7517 79.4005 43.8353 84.4203 29.9228 83.8415C23.9764 83.6036 18.1389 82.1388 12.7624 79.5355C8.01194 77.481 3.68567 74.5271 0.012207 70.83C1.64763 67.7153 3.28303 64.5825 4.80654 61.3406C6.21305 62.2646 7.39323 63.4846 8.73616 64.5695C13.0106 68.0354 17.9387 70.5658 23.2133 72.0032C31.1742 74.1575 41.7548 73.2361 46.4118 68.481C47.4809 67.3525 48.2863 65.992 48.7677 64.5011C49.2491 63.0102 49.394 61.4277 49.1918 59.8716C49.0268 58.073 48.3985 56.351 47.3707 54.8803C43.2376 49.0066 33.8728 47.3376 26.2807 44.8043C18.7877 42.3048 11.1982 39.5587 7.20501 32.6727C5.10493 28.6598 4.3036 24.0714 4.9159 19.5651C6.18761 8.43797 14.6928 2.74851 25.1437 0.781082C27.5741 0.293467 30.043 0.0328662 32.5197 0.00244705C42.198 -0.0945469 51.6935 2.6938 59.8411 8.02532" fill="white"/>
<path d="M309.738 8.02272C308.181 11.358 306.66 14.7297 305.137 18.0987C299.763 14.6385 293.766 12.3105 287.498 11.2516C278.342 9.78256 266.896 11.8616 266.896 21.229C266.816 23.7395 267.672 26.1876 269.292 28.0786C272.545 31.9044 277.897 33.7421 283.385 35.5123C293.994 38.9358 305.844 41.7701 309.939 52.046C311.938 57.9601 311.665 64.4277 309.176 70.1448C304.671 79.4005 293.755 84.4203 279.842 83.8415C273.896 83.6034 268.058 82.1386 262.682 79.5355C257.931 77.4811 253.605 74.5272 249.932 70.83C251.567 67.7153 253.203 64.5825 254.726 61.3406C256.133 62.2647 257.315 63.4846 258.656 64.5696C262.93 68.0356 267.858 70.566 273.133 72.0032C281.091 74.1575 291.674 73.2361 296.331 68.481C297.4 67.3524 298.205 65.9919 298.687 64.501C299.168 63.0102 299.313 61.4277 299.111 59.8716C298.947 58.073 298.318 56.3509 297.29 54.8803C293.155 49.0066 283.792 47.3376 276.2 44.8043C268.707 42.3048 261.12 39.5588 257.124 32.6728C255.024 28.6598 254.223 24.0714 254.835 19.5651C256.107 8.43799 264.612 2.74853 275.063 0.781097C277.494 0.293497 279.962 0.0328955 282.439 0.00246204C292.117 -0.094834 301.613 2.69354 309.761 8.02534" fill="white"/>
<path d="M79.1818 0.983887H90.1186C105.725 22.039 120.869 43.5511 136.422 64.6711V0.983887H147.358V83.1618H138.993C138.101 83.2663 137.201 83.2663 136.31 83.1618C135.496 82.9023 134.097 80.2886 133.336 79.2477C118.966 59.5215 104.316 39.0426 90.0982 19.5707V83.1618H79.0725V1.2772C79.0725 1.13964 79.0572 0.99946 79.1691 0.983887" fill="white"/>
<path d="M168.721 0.983887H179.657C179.657 16.9725 179.657 33.6204 179.657 49.1159C179.657 64.3544 187.603 73.7737 202.665 73.7737C217.727 73.7737 225.673 64.6347 225.673 49.1159C225.673 33.5971 225.673 16.9985 225.673 0.983887H236.696V45.1083C236.856 49.7237 236.567 54.3439 235.834 58.9011C232.71 74.5264 221.336 83.9457 202.769 83.9457C184.457 83.9457 172.696 74.651 169.504 59.0958C168.763 54.5394 168.475 49.9185 168.642 45.303V1.2772C168.642 1.13964 168.626 0.99946 168.738 0.983887" fill="white"/>
<path d="M329.004 0.983887H339.941V37.5813H385.957V0.983887H397.173V83.1618H385.957V47.8441H340.03C339.806 59.4203 340 71.4195 339.936 83.1618H328.91V1.2772C328.91 1.13964 328.892 0.99946 329.004 0.983887Z" fill="white"/>
<path d="M513.644 0.983887H565.985C566.059 4.4827 565.855 7.69861 565.888 11.1559H524.667C524.443 19.96 524.634 29.1898 524.57 38.1497H561.669C561.893 41.3785 561.699 45.0305 561.765 48.4229H524.667C524.443 59.8044 524.634 71.609 524.57 83.1515H513.545V1.2772C513.545 1.13964 513.529 0.99946 513.641 0.983887" fill="white"/>
<path d="M497.632 39.6266C497.422 34.1632 496.104 28.8037 493.761 23.8867C491.418 18.9697 488.101 14.6021 484.02 11.0598C479.776 7.2683 474.837 4.37343 469.488 2.54276C464.14 0.712101 458.49 -0.0179467 452.863 0.394744C449.759 0.543541 446.676 1.00251 443.659 1.76516C436.146 3.74267 429.333 7.84645 424.006 13.6035C420.295 17.6843 417.422 22.4809 415.555 27.7112C413.687 32.9416 412.863 38.5001 413.131 44.0601C413.399 49.6201 414.754 55.0693 417.115 60.0873C419.477 65.1054 422.798 69.591 426.882 73.2806C435.487 80.883 446.683 84.7145 458.039 83.9431C468.904 83.5054 479.165 78.7268 486.609 70.6383C490.466 66.5405 493.439 61.6642 495.338 56.3231C497.236 50.982 498.018 45.2945 497.632 39.6266ZM483.158 42.7568C483.158 46.8915 483.138 49.5676 480.088 50.5824C477.919 50.9764 475.708 51.0637 473.516 50.8419C472.676 50.8108 471.845 50.7849 471.077 50.7849H462.724C462.638 53.1027 462.612 55.3478 462.612 57.6164C462.612 59.8849 462.63 62.1741 462.63 64.5802C462.63 64.7956 462.63 65.0085 462.63 65.2162C462.607 68.3308 462.345 70.6487 459.756 71.6246C458.085 71.9847 456.37 72.0836 454.669 71.9179C452.901 72.0296 451.126 71.8392 449.419 71.3546C448.815 71.1479 448.275 70.7844 447.85 70.2997C447.426 69.815 447.132 69.2259 446.998 68.5904C446.85 67.9023 446.793 67.1967 446.83 66.4931C446.83 66.1168 446.856 65.7301 446.871 65.3408C446.886 64.9514 446.901 64.5621 446.901 64.1857V50.7849H433.676C429.904 50.7849 427.401 50.8108 426.391 47.7507C426.189 46.9777 426.103 46.1777 426.137 45.3783C426.137 44.8099 426.16 44.2259 426.175 43.6575C426.175 43.3175 426.193 42.98 426.193 42.6659C426.193 38.8972 426.297 36.5378 428.589 35.3283C430.693 34.6018 432.933 34.3781 435.136 34.6743C435.927 34.708 436.7 34.7418 437.407 34.7418H446.802C446.868 33.797 446.896 32.7613 446.909 31.6659C446.909 31.3 446.909 30.9288 446.909 30.5525C446.909 29.5454 446.909 28.4994 446.909 27.4378C446.909 26.9083 446.909 26.3753 446.909 25.8389C446.909 23.8845 446.723 21.7665 446.723 19.9341C446.697 18.9593 446.792 17.9851 447.006 17.0348C447.072 16.8027 447.161 16.5783 447.273 16.3652C447.83 15.3289 448.716 14.517 449.786 14.0629C450.062 13.9407 450.351 13.8535 450.648 13.8034C450.93 13.7684 451.213 13.7484 451.497 13.7436C451.935 13.7306 452.413 13.7436 452.919 13.7436C453.644 13.7644 454.41 13.7982 455.155 13.7982C456.694 13.6493 458.247 13.7482 459.756 14.0914C461.758 14.8935 462.416 16.7519 462.612 19.1398C462.678 19.9367 462.691 20.7932 462.683 21.6886C462.683 22.8826 462.633 24.1492 462.633 25.4392V34.6353C463.273 34.6794 463.953 34.708 464.667 34.7261C466.448 34.7703 468.388 34.7469 470.365 34.7261H471.552H472.516C477.293 34.6613 481.418 34.246 482.769 37.5813C483.081 38.5748 483.216 39.6174 483.168 40.6596C483.176 41.35 483.158 42.0716 483.158 42.7568Z" fill="white"/>
</g>
<defs>
<clipPath id="clip0_116_447">
<rect width="566" height="84" fill="white"/>
</clipPath>
</defs>
</svg>
