<svg width="515" height="141" viewBox="0 0 515 141" fill="none" xmlns="http://www.w3.org/2000/svg">
<g clip-path="url(#clip0_120_640)">
<path d="M141.563 34.0205C137.281 34.0205 134.853 37.7092 133.517 44.6772L125.334 86.0212C123.943 92.9619 124.87 97.6619 130.38 97.6619C135.099 97.6619 137.226 93.5627 138.563 86.3487L146.746 45.3604C148.273 38.3104 146.8 34.0205 141.563 34.0205Z" fill="white"/>
<path d="M100.43 34.8945H96.2843L90.8291 62.2201H94.9205C101.794 62.2201 103.567 58.586 104.986 51.536L105.913 46.8088C107.358 40.2506 107.304 34.8945 100.43 34.8945Z" fill="white"/>
<path d="M0 0V141H515.027V0H0ZM93.8295 71.0465H89.1381L82.3191 105.613H72.5817L88.3743 26.1775H101.767C113.632 26.1775 118.133 34.02 115.842 46.8084L114.832 52.2735C112.568 64.57 107.822 70.9371 93.8295 70.9371V71.0465ZM148.846 85.4738C146.118 98.7814 142.272 106.733 129.398 106.733C116.523 106.733 113.223 97.6614 115.76 84.4905L123.506 44.759C126.043 31.6974 132.125 25.0573 142.436 25.0573C154.137 25.0573 159.183 33.6646 156.428 47.3001L148.846 85.4738ZM171.184 106.57C159.729 106.57 154.819 99.8474 157.546 86.4578L169.548 26.1775H179.286L167.148 87.2778C166.002 93.0434 166.984 97.1693 172.112 97.1693C177.24 97.1693 179.013 92.9067 180.295 87.1957L192.433 26.1775H202.279L190.332 86.2937C187.714 98.6449 184.304 106.46 171.184 106.46V106.57ZM231.192 85.0095C228.737 95.7758 226.364 106.733 212.099 106.733C199.443 106.733 196.661 97.7708 199.306 84.5725L206.753 47.218C209.671 32.7081 213.681 25.0573 225.055 25.0573C240.084 25.0573 240.384 37.0804 238.147 46.7263L237.875 48.0106H228.083L228.628 45.278C229.992 38.3646 229.583 34.1023 224.482 34.1023C220.227 34.1023 218.645 37.8729 217.145 45.3601L209.153 85.5832C207.598 93.535 208.171 97.743 213.135 97.743C217.499 97.743 219.109 93.7262 220.773 86.239L221.373 83.5065H231.438L231.192 85.0095ZM257.186 105.613L264.605 68.0678H251.485L244.066 105.613H234.329L250.122 26.1775H259.859L253.422 58.5312H266.815L273.252 26.1775H283.071L267.278 105.613H257.186ZM310.538 68.0678H294.609L289.154 96.0492H308.247L305.11 105.613H277.725L293.491 26.1775H320.085L318.121 35.7414H301.292L296.818 58.5312H312.748L310.538 68.0678ZM346.625 88.5073C344.415 99.9567 339.151 106.733 328.049 106.733C315.502 106.733 311.684 98.2354 314.111 86.0209L314.357 84.682H324.149L323.822 86.7854C322.649 94.0267 323.822 98.0165 328.977 98.0165C333.341 98.0165 335.659 94.3 336.887 87.5233C338.223 79.8721 337.269 75.118 330.477 66.893C322.812 57.6296 320.549 52.3829 322.458 41.398C324.285 30.823 329.577 25.0026 338.824 25.0026C352.462 25.0026 354.071 35.6867 352.462 45.278L352.162 47.0272H342.424L342.697 45.2507C343.679 39.1844 343.624 33.8288 338.524 33.8288C334.678 33.8288 332.85 36.8072 332.005 42.0264C331.05 48.1747 332.005 52.0004 337.46 58.5585C346.843 69.8987 348.943 76.9211 346.761 88.3979L346.625 88.5073ZM360.617 105.613H351.371L354.589 89.3545H363.999L360.617 105.613ZM390.621 71.0465H385.957L379.11 105.613H369.373L385.166 26.1775H398.586C410.423 26.1775 414.951 34.02 412.633 46.8084L411.651 52.2735C409.632 64.57 404.886 70.9371 390.894 70.9371L390.621 71.0465ZM435.872 105.613H408.596L424.389 26.1775H434.126L420.243 96.0492H438.572L435.872 105.613Z" fill="white"/>
<path d="M397.522 34.8945H393.376L387.921 62.2201H392.012C398.886 62.2201 400.659 58.586 402.104 51.536L403.005 46.8088C404.423 40.2506 404.368 34.8945 397.522 34.8945Z" fill="white"/>
</g>
<defs>
<clipPath id="clip0_120_640">
<rect width="515" height="141" fill="white"/>
</clipPath>
</defs>
</svg>
