<svg width="438" height="105" viewBox="0 0 438 105" fill="none" xmlns="http://www.w3.org/2000/svg">
<g clip-path="url(#clip0_120_702)">
<path d="M60.1677 60.7552C57.1801 58.9356 53.9707 57.5138 50.6198 56.5252C47.1397 55.475 43.657 54.5481 40.1718 53.7446C36.6865 52.9412 33.5039 52.1351 30.6238 51.3264C28.1249 50.7009 25.7631 49.6138 23.6585 48.1205C22.8238 47.5304 22.1464 46.7422 21.6864 45.8258C21.2264 44.9094 20.9979 43.893 21.0211 42.8665C20.9927 41.1045 21.5429 39.3822 22.5863 37.9671C23.9433 36.3434 25.7367 35.1483 27.7516 34.5248C30.7357 33.5471 33.8654 33.0967 37.0022 33.1936C40.9002 33.2134 44.7777 33.7618 48.5301 34.8242C52.6351 35.9995 56.5785 37.685 60.2694 39.8418L66.2721 24.978C62.0843 22.3695 57.5 20.4695 52.7015 19.3538C47.5773 18.1013 42.3223 17.4719 37.0491 17.4791C29.1238 17.4791 22.5368 18.6685 17.288 21.0473C12.0393 23.4262 8.12618 26.6085 5.54876 30.5942C2.9631 34.5171 1.6005 39.1279 1.63567 43.8354C1.63567 48.3463 2.53569 52.0511 4.33571 54.9498C6.10034 57.816 8.514 60.221 11.3793 61.9682C14.3788 63.7946 17.5841 65.2543 20.9272 66.3163C24.4072 67.4453 27.8899 68.3932 31.3752 69.1599C34.8604 69.9266 38.0431 70.7326 40.9231 71.5781C43.4198 72.2377 45.7788 73.3422 47.8884 74.8392C48.7335 75.4492 49.4167 76.2588 49.878 77.1969C50.3392 78.1351 50.5644 79.1729 50.5336 80.2191C50.555 81.9468 49.9578 83.6245 48.851 84.9453C47.4464 86.4922 45.633 87.6042 43.6231 88.1512C40.5967 89.0044 37.4594 89.3922 34.3178 89.3013C29.2319 89.2948 24.1808 88.4568 19.362 86.82C14.8125 85.3692 10.5027 83.2455 6.57399 80.5184L0 95.2484C3.767 98.1471 8.72358 100.51 14.8697 102.338C21.1543 104.166 27.6663 105.081 34.2082 105.055C42.217 105.055 48.8406 103.845 54.0789 101.424C59.3172 99.0031 63.2616 95.8208 65.9121 91.877C68.5227 88.0341 69.9044 83.4801 69.8721 78.8249C69.8721 74.3876 68.9721 70.7116 67.1721 67.7972C65.4222 64.9264 63.0219 62.5132 60.1677 60.7552Z" fill="white"/>
<path d="M134.932 40.6294C130.655 38.5214 125.942 37.4658 121.181 37.5495C116.042 37.4557 110.962 38.6609 106.405 41.0548C103.918 42.3891 101.683 44.1512 99.7998 46.2615V38.5341H81.9014V103.574H100.684V71.3968C100.684 67.3638 101.344 64.0582 102.664 61.4798C103.863 59.0305 105.796 57.022 108.19 55.7375C110.661 54.4643 113.404 53.8206 116.18 53.8627C120.354 53.8627 123.576 55.1125 125.845 57.6121C128.115 60.1118 129.242 63.9925 129.226 69.2543V103.59H147.962V66.3162C147.962 59.7048 146.801 54.2855 144.48 50.0582C142.335 46.0027 139.001 42.7106 134.932 40.6294Z" fill="white"/>
<path d="M211.26 70.6643C211.376 74.054 210.717 77.4251 209.335 80.5184C208.216 82.959 206.37 84.9881 204.052 86.3237C201.693 87.6034 199.046 88.2491 196.367 88.1985C192.193 88.1985 188.969 86.9277 186.694 84.386C184.419 81.8444 183.279 77.877 183.274 72.4839V38.5342H164.538V75.2881C164.538 81.9783 165.699 87.4764 168.021 91.7825C170.191 95.9486 173.619 99.3137 177.811 101.392C182.286 103.556 187.201 104.635 192.164 104.543C196.964 104.587 201.695 103.402 205.915 101.101C208.305 99.7886 210.429 98.0357 212.176 95.9336V103.582H229.957V38.5342H211.26V70.6643Z" fill="white"/>
<path d="M291.909 69.3962C289.516 68.0264 286.949 66.9903 284.279 66.3163C281.533 65.6024 278.747 65.0579 275.936 64.6858C273.176 64.3234 270.632 63.9007 268.305 63.4176C266.354 63.0657 264.47 62.4121 262.717 61.4798C262.064 61.136 261.521 60.6135 261.15 59.9725C260.779 59.3314 260.595 58.5979 260.62 57.8565C260.62 56.0868 261.58 54.6348 263.5 53.5005C265.425 52.3741 268.462 51.8069 272.633 51.8069C275.723 51.823 278.803 52.1689 281.821 52.8388C285.134 53.5926 288.305 54.8772 291.213 56.6434L297.473 43.2525C293.93 41.2132 290.074 39.7835 286.063 39.0226C281.643 38.0705 277.137 37.5848 272.618 37.5732C266.357 37.5732 260.99 38.4791 256.519 40.2908C252.048 42.1025 248.625 44.5733 246.251 47.703C243.893 50.8274 242.644 54.6579 242.706 58.5811C242.706 62.2886 243.408 65.3107 244.811 67.6475C246.174 69.9464 248.094 71.8598 250.391 73.2087C252.792 74.6096 255.384 75.6473 258.084 76.2885C260.886 76.9712 263.667 77.5147 266.427 77.9191C269.187 78.3234 271.731 78.7278 274.058 79.1321C275.998 79.4125 277.882 80.0028 279.638 80.8808C280.283 81.1888 280.825 81.6789 281.199 82.2914C281.573 82.9039 281.762 83.6124 281.743 84.3309C281.744 85.2378 281.491 86.1265 281.014 86.8955C280.536 87.6645 279.853 88.2825 279.043 88.679C277.238 89.7293 274.175 90.2544 269.855 90.2544C265.809 90.2348 261.787 89.6435 257.904 88.4978C254.21 87.4837 250.673 85.9594 247.394 83.9686L241.133 97.5012C244.091 99.5177 248.114 101.19 253.201 102.519C258.401 103.863 263.75 104.533 269.119 104.512C275.599 104.512 281.104 103.627 285.632 101.857C290.161 100.088 293.623 97.6482 296.018 94.5395C298.401 91.495 299.672 87.7183 299.618 83.8426C299.618 80.1404 298.898 77.1314 297.458 74.8392C296.078 72.5956 294.173 70.7267 291.909 69.3962Z" fill="white"/>
<path d="M339.563 37.8252C338.937 37.8583 338.312 37.7606 337.726 37.5383C337.14 37.316 336.606 36.9738 336.158 36.5334C335.719 36.0352 335.382 35.4542 335.167 34.8242C334.952 34.1942 334.863 33.5275 334.906 32.8627V17.5499H344.211V9.16092H334.906V0H324.067V9.16092H318.299V17.5499H324.067V33.0203C324.067 37.4944 325.295 40.8605 327.753 43.1185C330.21 45.3766 333.636 46.5083 338.029 46.5135C339.657 46.5164 341.279 46.3153 342.857 45.9149C344.289 45.5788 345.646 44.9749 346.857 44.1347L343.937 36.4389C342.678 37.3871 341.135 37.876 339.563 37.8252Z" fill="white"/>
<path d="M380.133 10.2399C376.846 8.61149 373.231 7.76465 369.567 7.76465C365.904 7.76465 362.289 8.61149 359.002 10.2399C355.937 11.8347 353.378 14.2627 351.616 17.248C349.853 20.2333 348.958 23.6563 349.032 27.1281C348.973 30.6371 349.9 34.0914 351.708 37.0925C353.485 40.0013 356.004 42.3784 359.002 43.977C362.282 45.6306 365.899 46.4917 369.567 46.4917C373.236 46.4917 376.853 45.6306 380.133 43.977C383.193 42.3653 385.756 39.9412 387.544 36.9677C389.333 33.9941 390.278 30.5844 390.278 27.1084C390.278 23.6324 389.333 20.2228 387.544 17.2492C385.756 14.2756 383.193 11.8515 380.133 10.2399ZM377.84 32.6892C377.061 34.1856 375.882 35.4327 374.435 36.289C372.946 37.1158 371.272 37.5494 369.571 37.5494C367.87 37.5494 366.197 37.1158 364.707 36.289C363.255 35.4297 362.066 34.1842 361.272 32.6892C360.427 30.953 359.988 29.0455 359.988 27.1124C359.988 25.1792 360.427 23.2717 361.272 21.5355C362.072 20.0529 363.26 18.8189 364.707 17.9672C366.197 17.1404 367.87 16.7068 369.571 16.7068C371.272 16.7068 372.946 17.1404 374.435 17.9672C375.877 18.816 377.055 20.0514 377.84 21.5355C378.664 23.2775 379.092 25.1827 379.092 27.1124C379.092 29.042 378.664 30.9473 377.84 32.6892Z" fill="white"/>
<path d="M435.535 16.9195C433.964 14.1007 431.658 11.7666 428.867 10.1689C425.972 8.53631 422.699 7.70465 419.381 7.7586C416.42 7.67738 413.492 8.40121 410.906 9.85387C409.663 10.5951 408.558 11.5495 407.642 12.6738V8.31788H397.296V59.5182H408.135V41.9289C409 42.9008 410.008 43.7324 411.125 44.3944C413.639 45.836 416.496 46.5629 419.389 46.4975C422.701 46.5537 425.971 45.7392 428.875 44.1344C431.669 42.5585 433.977 40.236 435.542 37.4233C437.161 34.2558 438.006 30.7452 438.006 27.1832C438.006 23.6212 437.161 20.1106 435.542 16.9431L435.535 16.9195ZM425.736 32.6735C424.949 34.1609 423.775 35.4051 422.34 36.2732C420.872 37.1238 419.204 37.5593 417.511 37.5336C415.806 37.5574 414.125 37.1223 412.643 36.2732C411.196 35.4169 410.017 34.1698 409.239 32.6735C408.414 30.9315 407.986 29.0262 407.986 27.0966C407.986 25.167 408.414 23.2617 409.239 21.5197C410.023 20.0356 411.202 18.8002 412.643 17.9514C414.124 17.0987 415.805 16.6633 417.511 16.6911C419.192 16.6486 420.852 17.0777 422.304 17.9305C423.757 18.7832 424.945 20.026 425.736 21.5197C426.587 23.2542 427.029 25.1624 427.029 27.0966C427.029 29.0307 426.587 30.9389 425.736 32.6735Z" fill="white"/>
</g>
<defs>
<clipPath id="clip0_120_702">
<rect width="438" height="105" fill="white"/>
</clipPath>
</defs>
</svg>
