<svg width="216" height="140" viewBox="0 0 216 140" fill="none" xmlns="http://www.w3.org/2000/svg">
<path opacity="0.2" d="M0.907671 47H-0.092329V48H0.907671V47ZM3.20881 21.1761L2.27248 20.825L3.20881 21.1761ZM9.28125 9.60653L8.45975 9.03632L9.28125 9.60653ZM17.4631 0.529827L17.9715 -0.331282L17.3672 -0.688064L16.8262 -0.241135L17.4631 0.529827ZM29.4801 7.625L30.3238 8.16187L30.8789 7.28957L29.9885 6.76389L29.4801 7.625ZM23.5994 19.3864L22.6631 19.0352L22.6599 19.0438L23.5994 19.3864ZM21.3622 47V48H22.3622V47H21.3622ZM1.90767 47V33.1932H-0.092329V47H1.90767ZM1.90767 33.1932C1.90767 29.4056 2.64835 25.5187 4.14514 21.5273L2.27248 20.825C0.701078 25.0154 -0.092329 29.1399 -0.092329 33.1932H1.90767ZM4.14514 21.5273C5.6499 17.5146 7.6353 13.7315 10.1027 10.1767L8.45975 9.03632C5.89879 12.7258 3.8359 16.6559 2.27248 20.825L4.14514 21.5273ZM10.1027 10.1767C12.5728 6.6182 15.24 3.66336 18.0999 1.30079L16.8262 -0.241135C13.8055 2.25424 11.0181 5.35054 8.45975 9.03632L10.1027 10.1767ZM16.9546 1.39094L28.9717 8.48611L29.9885 6.76389L17.9715 -0.331282L16.9546 1.39094ZM28.6365 7.08813C26.2135 10.8956 24.222 14.8782 22.6631 19.0352L24.5358 19.7375C26.0451 15.7127 27.974 11.8544 30.3238 8.16187L28.6365 7.08813ZM22.6599 19.0438C21.1228 23.2601 20.3622 27.9379 20.3622 33.0653H22.3622C22.3622 28.136 23.0932 23.6945 24.5389 19.7289L22.6599 19.0438ZM20.3622 33.0653V47H22.3622V33.0653H20.3622ZM21.3622 46H0.907671V48H21.3622V46ZM91.1327 139.876L91.1288 140.876H91.1327V139.876ZM62.752 131.759L62.1891 132.585L62.1911 132.586L62.752 131.759ZM44.5347 108.428L43.6108 108.81L43.6122 108.814L44.5347 108.428ZM38.2705 71.6733L39.2705 71.6763V71.6733H38.2705ZM44.5986 35.1747L43.6778 34.7846L43.6764 34.7879L44.5986 35.1747ZM62.8159 12.2273L63.3696 13.06L63.3706 13.0593L62.8159 12.2273ZM119.386 12.2273L118.829 13.0579L118.831 13.0593L119.386 12.2273ZM137.667 35.2386L136.746 35.6288L136.747 35.6302L137.667 35.2386ZM143.995 71.6733L142.995 71.6703V71.6733H143.995ZM137.603 108.491L136.68 108.105L136.679 108.109L137.603 108.491ZM119.449 131.822L120.012 132.649L119.449 131.822ZM109.094 105.615L109.954 106.125L109.094 105.615ZM115.742 71.6733H114.742L114.742 71.6761L115.742 71.6733ZM112.674 46.8722L111.717 47.1623L111.719 47.168L112.674 46.8722ZM104.109 31.9787L103.437 32.7194L103.441 32.7233L104.109 31.9787ZM73.2349 38.179L72.3774 37.6645L73.2349 38.179ZM66.4594 71.6733L65.4594 71.6704V71.6733H66.4594ZM69.4636 96.858L68.5051 97.1431L68.5073 97.1503L69.4636 96.858ZM78.0929 111.943L77.4206 112.684L77.4254 112.688L78.0929 111.943ZM91.1365 138.876C80.3105 138.834 71.0511 136.173 63.3128 130.931L62.1911 132.586C70.3052 138.083 79.9662 140.833 91.1288 140.876L91.1365 138.876ZM63.3149 130.932C55.6153 125.688 49.6559 118.076 45.4572 108.042L43.6122 108.814C47.9362 119.148 54.1216 127.09 62.1891 132.585L63.3149 130.932ZM45.4585 108.045C41.3031 98.0131 39.2281 85.8998 39.2704 71.6763L37.2705 71.6703C37.2276 86.0831 39.3287 98.4727 43.6108 108.81L45.4585 108.045ZM39.2705 71.6733C39.2705 57.4915 41.3666 45.4644 45.5207 35.5615L43.6764 34.7879C39.3931 44.9987 37.2705 57.304 37.2705 71.6733H39.2705ZM45.5193 35.5649C49.7164 25.6599 55.673 18.1772 63.3696 13.06L62.2622 11.3945C54.1917 16.7603 48.0035 24.5759 43.6778 34.7846L45.5193 35.5649ZM63.3706 13.0593C71.1089 7.90046 80.348 5.30113 91.1327 5.30113V3.30113C80.0139 3.30113 70.3752 5.9859 62.2612 11.3952L63.3706 13.0593ZM91.1327 5.30113C101.917 5.30113 111.134 7.9005 118.829 13.0579L119.942 11.3966C111.87 5.98586 102.251 3.30113 91.1327 3.30113V5.30113ZM118.831 13.0593C126.572 18.2198 132.549 25.7248 136.746 35.6288L138.588 34.8485C134.261 24.6389 128.052 16.8029 119.94 11.3952L118.831 13.0593ZM136.747 35.6302C140.941 45.4873 143.037 57.4901 142.995 71.6703L144.995 71.6763C145.038 57.3054 142.915 45.0184 138.587 34.8471L136.747 35.6302ZM142.995 71.6733C142.995 85.9396 140.878 98.0739 136.68 108.105L138.525 108.877C142.851 98.5398 144.995 86.1286 144.995 71.6733H142.995ZM136.679 108.109C132.523 118.142 126.585 125.753 118.887 130.996L120.012 132.649C128.081 127.154 134.245 119.21 138.527 108.874L136.679 108.109ZM118.887 130.996C111.193 136.236 101.958 138.876 91.1327 138.876V140.876C102.296 140.876 111.939 138.148 120.012 132.649L118.887 130.996ZM91.1327 117.929C99.0512 117.929 105.336 113.911 109.954 106.125L108.234 105.105C103.904 112.405 98.2141 115.929 91.1327 115.929V117.929ZM109.954 106.125C114.565 98.3522 116.785 86.8222 116.742 71.6705L114.742 71.6761C114.784 86.6949 112.572 97.7927 108.234 105.105L109.954 106.125ZM116.742 71.6733C116.742 61.6838 115.714 53.309 113.629 46.5763L111.719 47.168C113.725 53.6455 114.742 61.8048 114.742 71.6733H116.742ZM113.631 46.582C111.595 39.8665 108.663 34.7185 104.776 31.2341L103.441 32.7233C106.969 35.8866 109.748 40.6675 111.717 47.1623L113.631 46.582ZM104.78 31.238C100.93 27.7458 96.3647 25.9929 91.1327 25.9929V27.9929C95.8722 27.9929 99.9575 29.5638 103.437 32.7194L104.78 31.238ZM91.1327 25.9929C83.2601 25.9929 76.9971 29.9651 72.3774 37.6645L74.0924 38.6935C78.4217 31.4781 84.0905 27.9929 91.1327 27.9929V25.9929ZM72.3774 37.6645C67.7658 45.3506 65.5022 56.7306 65.4594 71.6704L67.4594 71.6762C67.5018 56.8717 69.7553 45.9221 74.0924 38.6935L72.3774 37.6645ZM65.4594 71.6733C65.4594 81.7888 66.4657 90.2872 68.5051 97.1431L70.4221 96.5728C68.4559 89.9628 67.4594 81.6715 67.4594 71.6733H65.4594ZM68.5073 97.1503C70.5855 103.948 73.5372 109.157 77.4206 112.684L78.7651 111.203C75.2338 107.996 72.4327 103.149 70.4199 96.5656L68.5073 97.1503ZM77.4254 112.688C81.3165 116.176 85.9008 117.929 91.1327 117.929V115.929C86.3929 115.929 82.2841 114.358 78.7604 111.199L77.4254 112.688ZM215.283 6.09091H216.283V5.09091H215.283V6.09091ZM215.283 137V138H216.283V137H215.283ZM187.606 137H186.606V138H187.606V137ZM187.606 32.3622H188.606V31.3622H187.606V32.3622ZM186.839 32.3622V31.3622H186.551L186.308 31.5149L186.839 32.3622ZM156.86 51.1548H155.86V52.9619L157.391 52.0021L156.86 51.1548ZM156.86 26.6094L156.325 25.7645L155.86 26.0589V26.6094H156.86ZM189.268 6.09091V5.09091H188.978L188.733 5.24601L189.268 6.09091ZM214.283 6.09091V137H216.283V6.09091H214.283ZM215.283 136H187.606V138H215.283V136ZM188.606 137V32.3622H186.606V137H188.606ZM187.606 31.3622H186.839V33.3622H187.606V31.3622ZM186.308 31.5149L156.329 50.3075L157.391 52.0021L187.37 33.2095L186.308 31.5149ZM157.86 51.1548V26.6094H155.86V51.1548H157.86ZM157.395 27.4543L189.803 6.9358L188.733 5.24601L156.325 25.7645L157.395 27.4543ZM189.268 7.0909H215.283V5.09091H189.268V7.0909Z" fill="white"/>
</svg>
