<svg width="258" height="140" viewBox="0 0 258 140" fill="none" xmlns="http://www.w3.org/2000/svg">
<path opacity="0.2" d="M0.907671 47H-0.092329V48H0.907671V47ZM3.20881 21.1761L2.27248 20.825L3.20881 21.1761ZM9.28125 9.60653L8.45975 9.03632L9.28125 9.60653ZM17.4631 0.529827L17.9715 -0.331282L17.3672 -0.688064L16.8262 -0.241135L17.4631 0.529827ZM29.4801 7.625L30.3238 8.16187L30.8789 7.28957L29.9885 6.76389L29.4801 7.625ZM23.5994 19.3864L22.6631 19.0352L22.6599 19.0438L23.5994 19.3864ZM21.3622 47V48H22.3622V47H21.3622ZM1.90767 47V33.1932H-0.092329V47H1.90767ZM1.90767 33.1932C1.90767 29.4056 2.64835 25.5187 4.14514 21.5273L2.27248 20.825C0.701078 25.0154 -0.092329 29.1399 -0.092329 33.1932H1.90767ZM4.14514 21.5273C5.6499 17.5146 7.6353 13.7315 10.1027 10.1767L8.45975 9.03632C5.89879 12.7258 3.8359 16.6559 2.27248 20.825L4.14514 21.5273ZM10.1027 10.1767C12.5728 6.6182 15.24 3.66336 18.0999 1.30079L16.8262 -0.241135C13.8055 2.25424 11.0181 5.35054 8.45975 9.03632L10.1027 10.1767ZM16.9546 1.39094L28.9717 8.48611L29.9885 6.76389L17.9715 -0.331282L16.9546 1.39094ZM28.6365 7.08813C26.2135 10.8956 24.222 14.8782 22.6631 19.0352L24.5358 19.7375C26.0451 15.7127 27.974 11.8544 30.3238 8.16187L28.6365 7.08813ZM22.6599 19.0438C21.1228 23.2601 20.3622 27.9379 20.3622 33.0653H22.3622C22.3622 28.136 23.0932 23.6945 24.5389 19.7289L22.6599 19.0438ZM20.3622 33.0653V47H22.3622V33.0653H20.3622ZM21.3622 46H0.907671V48H21.3622V46ZM91.1327 139.876L91.1288 140.876H91.1327V139.876ZM62.752 131.759L62.1891 132.585L62.1911 132.586L62.752 131.759ZM44.5347 108.428L43.6108 108.81L43.6122 108.814L44.5347 108.428ZM38.2705 71.6733L39.2705 71.6763V71.6733H38.2705ZM44.5986 35.1747L43.6778 34.7846L43.6764 34.7879L44.5986 35.1747ZM62.8159 12.2273L63.3696 13.06L63.3706 13.0593L62.8159 12.2273ZM119.386 12.2273L118.829 13.0579L118.831 13.0593L119.386 12.2273ZM137.667 35.2386L136.746 35.6288L136.747 35.6302L137.667 35.2386ZM143.995 71.6733L142.995 71.6703V71.6733H143.995ZM137.603 108.491L136.68 108.105L136.679 108.109L137.603 108.491ZM119.449 131.822L120.012 132.649L119.449 131.822ZM109.094 105.615L109.954 106.125L109.094 105.615ZM115.742 71.6733H114.742L114.742 71.6761L115.742 71.6733ZM112.674 46.8722L111.717 47.1623L111.719 47.168L112.674 46.8722ZM104.109 31.9787L103.437 32.7194L103.441 32.7233L104.109 31.9787ZM73.2349 38.179L72.3774 37.6645L73.2349 38.179ZM66.4594 71.6733L65.4594 71.6704V71.6733H66.4594ZM69.4636 96.858L68.5051 97.1431L68.5073 97.1503L69.4636 96.858ZM78.0929 111.943L77.4206 112.684L77.4254 112.688L78.0929 111.943ZM91.1365 138.876C80.3105 138.834 71.0511 136.173 63.3128 130.931L62.1911 132.586C70.3052 138.083 79.9662 140.833 91.1288 140.876L91.1365 138.876ZM63.3149 130.932C55.6153 125.688 49.6559 118.076 45.4572 108.042L43.6122 108.814C47.9362 119.148 54.1216 127.09 62.1891 132.585L63.3149 130.932ZM45.4585 108.045C41.3031 98.0131 39.2281 85.8998 39.2704 71.6763L37.2705 71.6703C37.2276 86.0831 39.3287 98.4727 43.6108 108.81L45.4585 108.045ZM39.2705 71.6733C39.2705 57.4915 41.3666 45.4644 45.5207 35.5615L43.6764 34.7879C39.3931 44.9987 37.2705 57.304 37.2705 71.6733H39.2705ZM45.5193 35.5649C49.7164 25.6599 55.673 18.1772 63.3696 13.06L62.2622 11.3945C54.1917 16.7603 48.0035 24.5759 43.6778 34.7846L45.5193 35.5649ZM63.3706 13.0593C71.1089 7.90046 80.348 5.30113 91.1327 5.30113V3.30113C80.0139 3.30113 70.3752 5.9859 62.2612 11.3952L63.3706 13.0593ZM91.1327 5.30113C101.917 5.30113 111.134 7.9005 118.829 13.0579L119.942 11.3966C111.87 5.98586 102.251 3.30113 91.1327 3.30113V5.30113ZM118.831 13.0593C126.572 18.2198 132.549 25.7248 136.746 35.6288L138.588 34.8485C134.261 24.6389 128.052 16.8029 119.94 11.3952L118.831 13.0593ZM136.747 35.6302C140.941 45.4873 143.037 57.4901 142.995 71.6703L144.995 71.6763C145.038 57.3054 142.915 45.0184 138.587 34.8471L136.747 35.6302ZM142.995 71.6733C142.995 85.9396 140.878 98.0739 136.68 108.105L138.525 108.877C142.851 98.5398 144.995 86.1286 144.995 71.6733H142.995ZM136.679 108.109C132.523 118.142 126.585 125.753 118.887 130.996L120.012 132.649C128.081 127.154 134.245 119.21 138.527 108.874L136.679 108.109ZM118.887 130.996C111.193 136.236 101.958 138.876 91.1327 138.876V140.876C102.296 140.876 111.939 138.148 120.012 132.649L118.887 130.996ZM91.1327 117.929C99.0512 117.929 105.336 113.911 109.954 106.125L108.234 105.105C103.904 112.405 98.2141 115.929 91.1327 115.929V117.929ZM109.954 106.125C114.565 98.3522 116.785 86.8222 116.742 71.6705L114.742 71.6761C114.784 86.6949 112.572 97.7927 108.234 105.105L109.954 106.125ZM116.742 71.6733C116.742 61.6838 115.714 53.309 113.629 46.5763L111.719 47.168C113.725 53.6455 114.742 61.8048 114.742 71.6733H116.742ZM113.631 46.582C111.595 39.8665 108.663 34.7185 104.776 31.2341L103.441 32.7233C106.969 35.8866 109.748 40.6675 111.717 47.1623L113.631 46.582ZM104.78 31.238C100.93 27.7458 96.3647 25.9929 91.1327 25.9929V27.9929C95.8722 27.9929 99.9575 29.5638 103.437 32.7194L104.78 31.238ZM91.1327 25.9929C83.2601 25.9929 76.9971 29.9651 72.3774 37.6645L74.0924 38.6935C78.4217 31.4781 84.0905 27.9929 91.1327 27.9929V25.9929ZM72.3774 37.6645C67.7658 45.3506 65.5022 56.7306 65.4594 71.6704L67.4594 71.6762C67.5018 56.8717 69.7553 45.9221 74.0924 38.6935L72.3774 37.6645ZM65.4594 71.6733C65.4594 81.7888 66.4657 90.2872 68.5051 97.1431L70.4221 96.5728C68.4559 89.9628 67.4594 81.6715 67.4594 71.6733H65.4594ZM68.5073 97.1503C70.5855 103.948 73.5372 109.157 77.4206 112.684L78.7651 111.203C75.2338 107.996 72.4327 103.149 70.4199 96.5656L68.5073 97.1503ZM77.4254 112.688C81.3165 116.176 85.9008 117.929 91.1327 117.929V115.929C86.3929 115.929 82.2841 114.358 78.7604 111.199L77.4254 112.688ZM181.214 133.868L180.805 134.78L180.811 134.783L181.214 133.868ZM163.636 120.189L162.828 120.779L162.833 120.785L163.636 120.189ZM157.052 99.9901V98.9901H156.035L156.052 100.007L157.052 99.9901ZM184.921 99.9901L185.92 99.9368L185.869 98.9901H184.921V99.9901ZM188.053 108.428L187.268 109.047L187.274 109.055L187.281 109.062L188.053 108.428ZM195.852 113.989L195.474 114.915H195.474L195.852 113.989ZM217.968 113.733L217.55 112.825L217.968 113.733ZM225.575 107.533L226.396 108.103L225.575 107.533ZM225.383 89.1236L224.565 89.6988L224.57 89.7061L224.575 89.7133L225.383 89.1236ZM217.073 82.7315L216.679 83.6507L216.683 83.6524L217.073 82.7315ZM192.08 80.4304H191.08V81.4304H192.08V80.4304ZM192.08 60.1037V59.1037H191.08V60.1037H192.08ZM215.347 57.9304L214.939 57.0176L214.934 57.0196L215.347 57.9304ZM222.89 51.9219L223.709 52.4954L223.714 52.489L222.89 51.9219ZM223.21 34.2159L222.356 34.7368L222.361 34.7453L222.367 34.7537L223.21 34.2159ZM216.69 28.3352L216.237 29.2269L216.242 29.2297L216.69 28.3352ZM196.683 28.2713L197.074 29.1918L197.084 29.1872L196.683 28.2713ZM189.204 33.9602L190.001 34.5646L189.204 33.9602ZM186.2 42.6534V43.6534H187.162L187.199 42.6918L186.2 42.6534ZM159.673 42.6534L158.673 42.6365L158.656 43.6534H159.673V42.6534ZM166.129 22.7102L166.938 23.2977L166.129 22.7102ZM183.004 9.22301L183.42 10.1322L183.422 10.1311L183.004 9.22301ZM230.816 9.22301L231.252 8.32299L230.816 9.22301ZM246.604 22.5185L245.774 23.0761L245.779 23.0834L246.604 22.5185ZM252.229 41.1832L251.229 41.1771L251.229 41.189L252.229 41.1832ZM245.39 59.5284L244.661 58.8438L244.658 58.8472L245.39 59.5284ZM227.556 68.8608L227.379 67.8766L226.556 68.0249V68.8608H227.556ZM227.556 69.8835H226.556V70.7634L227.429 70.8754L227.556 69.8835ZM249.545 79.919L248.81 80.5969L248.815 80.6028L249.545 79.919ZM257.087 100.246L256.087 100.241L256.087 100.251L257.087 100.246ZM250.631 120.125L249.831 119.525L249.829 119.529L250.631 120.125ZM232.798 133.804L232.396 132.888L232.798 133.804ZM206.718 137.79C197.288 137.79 188.927 136.169 181.617 132.953L180.811 134.783C188.415 138.129 197.058 139.79 206.718 139.79V137.79ZM181.623 132.955C174.344 129.693 168.628 125.234 164.439 119.593L162.833 120.785C167.251 126.735 173.254 131.395 180.805 134.78L181.623 132.955ZM164.443 119.599C160.311 113.937 158.176 107.407 158.052 99.9733L156.052 100.007C156.183 107.829 158.438 114.764 162.828 120.778L164.443 119.599ZM157.052 100.99H184.921V98.9901H157.052V100.99ZM183.923 100.043C184.104 103.438 185.218 106.45 187.268 109.047L188.838 107.808C187.053 105.547 186.08 102.934 185.92 99.9368L183.923 100.043ZM187.281 109.062C189.36 111.593 192.102 113.539 195.474 114.915L196.229 113.063C193.124 111.796 190.668 110.035 188.826 107.793L187.281 109.062ZM195.474 114.915C198.85 116.292 202.624 116.97 206.782 116.97V114.97C202.843 114.97 199.331 114.328 196.229 113.063L195.474 114.915ZM206.782 116.97C211.119 116.97 214.995 116.203 218.386 114.641L217.55 112.825C214.464 114.246 210.883 114.97 206.782 114.97V116.97ZM218.386 114.641C221.769 113.083 224.451 110.907 226.396 108.103L224.753 106.963C223.033 109.442 220.644 111.4 217.55 112.825L218.386 114.641ZM226.396 108.103C228.354 105.281 229.323 102.032 229.323 98.392H227.323C227.323 101.656 226.461 104.501 224.753 106.963L226.396 108.103ZM229.323 98.392C229.323 94.6973 228.282 91.3989 226.191 88.5339L224.575 89.7133C226.404 92.2176 227.323 95.0982 227.323 98.392H229.323ZM226.201 88.5484C224.158 85.6425 221.226 83.4044 217.463 81.8107L216.683 83.6524C220.165 85.1268 222.773 87.1501 224.565 89.6988L226.201 88.5484ZM217.467 81.8124C213.734 80.2127 209.333 79.4304 204.289 79.4304V81.4304C209.132 81.4304 213.253 82.1822 216.679 83.6507L217.467 81.8124ZM204.289 79.4304H192.08V81.4304H204.289V79.4304ZM193.08 80.4304V60.1037H191.08V80.4304H193.08ZM192.08 61.1037H204.289V59.1037H192.08V61.1037ZM204.289 61.1037C208.581 61.1037 212.412 60.3589 215.76 58.8412L214.934 57.0196C211.89 58.3996 208.35 59.1037 204.289 59.1037V61.1037ZM215.756 58.8432C219.136 57.3308 221.802 55.2198 223.709 52.4953L222.071 51.3484C220.398 53.7376 218.036 55.6323 214.939 57.0176L215.756 58.8432ZM223.714 52.489C225.629 49.7071 226.575 46.4795 226.575 42.8452H224.575C224.575 46.1142 223.73 48.9378 222.066 51.3548L223.714 52.489ZM226.575 42.8452C226.575 39.3968 225.744 36.329 224.053 33.6781L222.367 34.7537C223.829 37.046 224.575 39.731 224.575 42.8452H226.575ZM224.063 33.695C222.425 31.0097 220.105 28.925 217.137 27.4408L216.242 29.2297C218.899 30.5579 220.926 32.3937 222.356 34.7368L224.063 33.695ZM217.142 27.4436C214.208 25.9536 210.808 25.2259 206.974 25.2259V27.2259C210.554 27.2259 213.632 27.9044 216.237 29.2269L217.142 27.4436ZM206.974 25.2259C203.1 25.2259 199.531 25.9308 196.281 27.3554L197.084 29.1872C200.056 27.8846 203.348 27.2259 206.974 27.2259V25.2259ZM196.292 27.3509C193.035 28.7338 190.397 30.7331 188.407 33.3558L190.001 34.5646C191.761 32.2442 194.108 30.4509 197.073 29.1917L196.292 27.3509ZM188.407 33.3558C186.399 36.0029 185.336 39.1017 185.2 42.615L187.199 42.6918C187.319 39.5573 188.259 36.8608 190.001 34.5646L188.407 33.3558ZM186.2 41.6534H159.673V43.6534H186.2V41.6534ZM160.673 42.6704C160.797 35.3197 162.89 28.874 166.938 23.2977L165.319 22.1228C161.015 28.0521 158.804 34.9019 158.673 42.6365L160.673 42.6704ZM166.938 23.2977C171.004 17.697 176.487 13.3062 183.42 10.1322L182.587 8.31377C175.372 11.6171 169.606 16.2177 165.319 22.1228L166.938 23.2977ZM183.422 10.1311C190.39 6.91844 198.277 5.30113 207.102 5.30113V3.30113C198.029 3.30113 189.85 4.96507 182.585 8.31489L183.422 10.1311ZM207.102 5.30113C216.015 5.30113 223.765 6.91944 230.38 10.123L231.252 8.32299C224.316 4.96407 216.257 3.30113 207.102 3.30113V5.30113ZM230.38 10.123C237.016 13.3365 242.135 17.6577 245.774 23.0761L247.435 21.9608C243.574 16.2144 238.167 11.672 231.252 8.32299L230.38 10.123ZM245.779 23.0834C249.453 28.45 251.271 34.4712 251.229 41.1771L253.229 41.1894C253.273 34.0884 251.341 27.6664 247.43 21.9535L245.779 23.0834ZM251.229 41.189C251.271 48.2875 249.071 54.1478 244.661 58.8438L246.119 60.213C250.913 55.1079 253.273 48.738 253.229 41.1774L251.229 41.189ZM244.658 58.8472C240.262 63.5717 234.521 66.5894 227.379 67.8766L227.734 69.8449C235.251 68.4901 241.399 65.2862 246.122 60.2096L244.658 58.8472ZM226.556 68.8608V69.8835H228.556V68.8608H226.556ZM227.429 70.8754C236.899 72.0906 243.984 75.3626 248.81 80.5968L250.28 79.2412C245.049 73.5664 237.474 70.148 227.683 68.8916L227.429 70.8754ZM248.815 80.6028C253.693 85.8091 256.129 92.3299 256.087 100.241L258.087 100.251C258.131 91.8832 255.538 84.8528 250.275 79.2353L248.815 80.6028ZM256.087 100.251C256.129 107.497 254.043 113.91 249.831 119.525L251.431 120.725C255.913 114.749 258.131 107.909 258.087 100.24L256.087 100.251ZM249.829 119.529C245.643 125.165 239.846 129.624 232.396 132.888L233.199 134.72C240.92 131.337 247.012 126.676 251.434 120.721L249.829 119.529ZM232.396 132.888C224.959 136.147 216.406 137.79 206.718 137.79V139.79C216.632 139.79 225.466 138.108 233.199 134.72L232.396 132.888Z" fill="white"/>
</svg>
