<?xml version="1.0" standalone="no"?>
<!DOCTYPE svg PUBLIC "-//W3C//DTD SVG 20010904//EN"
 "http://www.w3.org/TR/2001/REC-SVG-20010904/DTD/svg10.dtd">
<svg version="1.0" xmlns="http://www.w3.org/2000/svg"
 width="700.000000pt" height="700.000000pt" viewBox="0 0 700.000000 700.000000"
 preserveAspectRatio="xMidYMid meet">
<metadata>
Created by potrace 1.14, written by Peter Selinger 2001-2017
</metadata>
<g transform="translate(0.000000,700.000000) scale(0.100000,-0.100000)"
fill="#000000" stroke="none">
<path d="M3278 6996 c-1 -2 -42 -6 -89 -10 -47 -4 -95 -8 -105 -10 -10 -2 -41
-7 -69 -10 -27 -4 -72 -11 -100 -16 -27 -5 -61 -12 -75 -14 -209 -38 -523
-132 -677 -202 -28 -13 -54 -24 -57 -24 -14 0 -258 -124 -361 -183 -103 -60
-265 -165 -315 -204 -8 -6 -51 -40 -95 -74 -590 -459 -1028 -1129 -1220 -1862
-19 -73 -36 -143 -39 -157 -4 -26 -23 -131 -30 -165 -46 -242 -56 -715 -21
-980 2 -16 9 -64 15 -105 6 -41 13 -86 15 -100 17 -127 142 -565 189 -665 8
-16 24 -55 36 -85 70 -177 251 -499 382 -679 48 -65 193 -246 223 -277 154
-164 265 -270 370 -358 90 -74 90 -74 160 -126 33 -25 62 -48 63 -52 2 -5 8
-8 13 -8 6 0 38 -19 72 -43 94 -66 244 -152 397 -228 76 -38 141 -69 144 -69
4 0 25 -9 49 -19 155 -70 406 -148 627 -195 115 -24 130 -27 270 -46 237 -33
674 -34 880 -4 275 41 497 92 702 163 970 336 1740 1068 2116 2011 71 178 147
428 177 580 52 269 67 409 70 675 1 132 -1 276 -6 320 -11 123 -27 249 -34
275 -2 8 -7 35 -10 60 -10 70 -33 176 -61 280 -165 610 -462 1129 -900 1574
-133 135 -329 301 -456 387 -35 23 -65 45 -68 48 -3 3 -14 12 -25 18 -11 7
-68 42 -127 78 -264 162 -597 303 -918 389 -171 46 -259 62 -560 102 -47 6
-546 15 -552 10z m537 -221 c55 -6 258 -37 330 -50 393 -73 865 -273 1215
-514 640 -440 1107 -1096 1310 -1842 16 -58 31 -117 34 -130 3 -13 8 -35 11
-49 3 -14 7 -36 10 -50 2 -14 9 -50 15 -80 6 -30 13 -77 16 -105 3 -27 7 -61
10 -75 25 -152 24 -640 -2 -773 -2 -12 -6 -41 -9 -64 -7 -62 -16 -116 -20
-133 -2 -8 -7 -28 -10 -45 -41 -237 -161 -591 -279 -822 -53 -103 -47 -125
-47 199 0 163 4 226 15 255 59 157 123 441 151 673 11 86 14 527 4 605 -4 39
-11 93 -14 120 -14 125 -62 351 -98 465 -8 25 -20 65 -27 90 -43 146 -161 411
-255 575 -59 102 -192 302 -242 364 -193 238 -379 420 -584 572 -92 68 -95 70
-178 125 -318 207 -754 381 -1101 439 -19 3 -60 10 -90 15 -158 28 -320 38
-545 34 -110 -2 -211 -5 -225 -8 -14 -2 -50 -7 -80 -10 -54 -6 -151 -21 -200
-31 -110 -22 -150 -31 -260 -62 -321 -89 -628 -232 -905 -421 -190 -129 -278
-204 -460 -386 -312 -314 -557 -702 -703 -1116 -42 -119 -77 -227 -86 -270
-31 -141 -58 -274 -62 -315 -4 -27 -8 -53 -10 -56 -17 -30 -26 -538 -12 -689
8 -82 26 -216 33 -240 2 -8 6 -31 9 -50 11 -68 17 -96 46 -205 161 -601 502
-1152 950 -1534 41 -35 77 -67 80 -70 3 -3 23 -19 45 -36 22 -16 46 -35 52
-41 18 -18 260 -177 318 -209 108 -61 305 -155 410 -195 61 -23 119 -46 130
-50 49 -19 280 -83 345 -95 14 -3 36 -7 50 -10 53 -10 137 -25 185 -31 28 -3
57 -8 67 -9 31 -6 274 -19 358 -18 187 0 418 23 590 58 14 3 37 7 52 10 15 3
37 9 50 14 13 5 26 9 31 9 47 3 273 73 411 129 214 85 455 217 636 346 74 53
213 161 246 192 6 5 32 29 58 53 l46 43 -1 974 c-1 901 -2 974 -17 979 -9 2
-75 3 -145 2 l-128 -1 3 85 3 84 385 0 385 0 3 -82 c2 -61 0 -82 -10 -83 -7
-1 -71 -2 -143 -2 l-130 -2 -1 -1023 -1 -1024 -29 -26 c-16 -14 -56 -51 -89
-81 -265 -245 -589 -451 -960 -611 -229 -98 -545 -181 -855 -224 -188 -27
-623 -27 -790 -1 -14 3 -45 7 -70 10 -59 7 -184 31 -268 51 -37 8 -77 17 -88
20 -118 23 -414 130 -589 213 -241 115 -526 296 -700 446 -138 119 -308 287
-395 390 -23 28 -51 61 -63 75 -97 115 -249 348 -346 531 -171 323 -314 768
-347 1077 -3 32 -7 59 -9 62 -2 3 -7 57 -11 120 -14 197 -8 520 12 655 2 17 7
54 10 84 5 44 31 176 59 306 17 79 74 262 117 375 254 681 714 1244 1338 1639
95 61 395 216 480 248 30 12 85 33 121 47 182 70 493 149 679 171 30 4 57 8
60 10 3 2 55 6 115 10 61 4 112 8 113 10 6 6 424 -3 487 -10z m58 -2199 c73
-22 197 -104 197 -131 0 -5 -27 -36 -62 -67 l-62 -57 -37 32 c-110 95 -293 91
-393 -9 -104 -105 -107 -292 -6 -408 46 -52 120 -80 210 -80 83 1 140 22 195
74 l30 29 63 -59 c34 -32 62 -63 62 -69 0 -15 -79 -77 -135 -104 -69 -34 -146
-50 -229 -49 -75 2 -85 3 -156 22 -107 28 -225 125 -274 225 -134 274 8 581
304 659 70 18 216 14 293 -8z m998 -3 c196 -67 317 -234 317 -439 0 -337 -337
-543 -686 -420 -203 72 -327 309 -276 529 39 166 169 295 344 341 74 19 228
13 301 -11z m-2905 8 c7 0 109 -120 228 -266 120 -146 218 -265 220 -265 2 0
3 120 3 267 l-1 268 100 0 99 0 3 -447 2 -448 -83 0 c-94 0 -78 -11 -182 120
-33 41 -63 78 -68 81 -4 3 -18 19 -30 36 -59 82 -247 303 -248 291 -1 -20 -1
-324 0 -965 l1 -583 226 0 225 0 -2 -75 c-1 -42 0 -77 2 -79 2 -2 34 64 71
147 58 132 211 473 237 532 5 11 21 47 36 80 15 33 34 74 41 90 l14 31 102 -1
102 -1 46 -105 c26 -57 111 -248 190 -424 78 -176 146 -329 150 -341 8 -21 6
-21 -97 -22 l-105 -1 -28 62 c-15 34 -33 78 -40 97 l-12 35 -204 0 c-111 0
-206 -4 -211 -8 -4 -5 -24 -47 -44 -95 l-36 -87 -434 0 -434 0 -2 1030 c-1
567 0 1035 2 1041 2 8 95 12 161 5z m1099 -442 l0 -444 -102 -3 -103 -3 0 444
c0 244 2 446 5 448 2 3 49 5 102 4 l98 -1 0 -445z m-1686 187 c122 -82 123
-256 2 -341 -35 -25 -54 -30 -104 -32 -148 -4 -248 127 -202 266 42 127 194
180 304 107z m4436 15 c76 -35 115 -91 120 -171 12 -205 -251 -301 -367 -134
-120 170 60 392 247 305z m-4405 -965 c185 -48 271 -190 235 -386 -14 -74 -75
-154 -144 -190 -72 -36 -135 -48 -271 -49 -74 -1 -135 -3 -137 -4 -1 -2 -3
-57 -4 -124 l-1 -121 -103 0 -103 1 0 440 c0 243 1 444 3 447 2 3 106 5 232 4
180 -1 242 -4 293 -18z m2345 -17 c17 -20 64 -79 107 -130 42 -52 85 -104 95
-116 10 -12 61 -74 113 -137 l95 -116 5 267 5 268 95 0 c65 0 97 -4 100 -12 3
-7 5 -207 4 -445 l0 -433 -81 -3 c-95 -3 -82 -12 -208 143 -44 54 -92 112
-106 129 -15 17 -70 84 -123 150 -61 75 -96 111 -97 100 0 -11 -1 -132 -1
-270 l0 -252 -102 2 -101 1 -2 425 c-1 234 0 434 2 445 4 19 12 21 87 20 l83
0 30 -36z m1503 -47 l3 -82 -236 0 -236 0 3 -97 3 -98 200 -1 c110 -1 202 -2
206 -3 3 0 5 -36 5 -79 l0 -78 -206 0 -205 1 -3 -103 -3 -102 138 -1 c76 0
185 -1 243 -2 l105 -2 0 -80 0 -80 -345 0 -345 0 0 440 c0 242 2 442 6 445 4
3 155 5 336 5 l328 0 3 -83z"/>
<path d="M4628 4415 c-83 -21 -155 -86 -189 -170 -6 -16 -12 -65 -12 -107 -1
-66 3 -85 29 -135 52 -101 148 -155 263 -148 152 10 261 129 261 285 0 190
-168 322 -352 275z"/>
<path d="M2944 3158 c-3 -13 -14 -41 -24 -63 -26 -58 -100 -237 -100 -241 0
-2 63 -4 140 -4 l140 0 -11 27 c-6 15 -16 41 -24 58 -7 16 -33 78 -56 137 -24
59 -47 108 -51 108 -4 0 -10 -10 -14 -22z"/>
<path d="M1092 3071 l3 -155 101 0 c135 1 189 16 219 63 36 54 40 107 13 161
-35 68 -75 84 -221 85 l-117 2 2 -156z"/>
</g>
</svg>
